{
  "source": "C:\\Users\\Peter\\Desktop\\stuff\\MIUN\\quantitative_research\\video_compression\\videos\\BVI-HD\\BVI-HD_CDVL_videos\\ORIG\\SmokeGuns_1920x1080_60fps.mp4",
  "output": "C:\\Users\\Peter\\Desktop\\stuff\\MIUN\\quantitative_research\\video_compression\\compressed_videos\\BVI-HD\\hevc\\2.5\\SmokeGuns_1920x1080_60fps_hevc.mp4",
  "codec": "hevc",
  "ok": "Input #0, mov,mp4,m4a,3gp,3g2,mj2, from 'C:\\Users\\Peter\\Desktop\\stuff\\MIUN\\quantitative_research\\video_compression\\videos\\BVI-HD\\BVI-HD_CDVL_videos\\ORIG\\SmokeGuns_1920x1080_60fps.mp4':\n  Metadata:\n    major_brand     : isom\n    minor_version   : 512\n    compatible_brands: isomiso2avc1mp41\n    encoder         : Lavf54.28.101\n  Duration: 00:00:05.00, start: 0.000000, bitrate: 384353 kb/s\n  Stream #0:0[0x1](und): Video: h264 (High 4:4:4 Predictive) (avc1 / 0x31637661), yuv420p(progressive), 1920x1080, 384348 kb/s, 60 fps, 60 tbr, 60 tbn (default)\n    Metadata:\n      handler_name    : VideoHandler\n      vendor_id       : [0][0][0][0]\n[out#0/mp4 @ 000001b94767acc0] Codec AVOption b:a (set bitrate (in bits/s)) has not been used for any stream. The most likely reason is either wrong type (e.g. a video option with no video streams) or that it is a private option of some decoder which was not actually used for any stream.\nStream mapping:\n  Stream #0:0 -> #0:0 (h264 (native) -> hevc (libx265))\nPress [q] to stop, [?] for help\n[libx265 @ 000001b947cf0a80] Unknown option: \"aq-mode.\nx265 [info]: HEVC encoder version 4.1+190-8f11c33ac\nx265 [info]: build info [Windows][GCC 15.1.0][64 bit] 10bit\nx265 [info]: using cpu capabilities: MMX2 SSE2Fast LZCNT SSSE3 SSE4.2 AVX FMA3 BMI2 AVX2\nx265 [info]: Main 10 profile, Level-4.1 (Main tier)\nx265 [info]: Thread pool created using 12 threads\nx265 [info]: Slices                              : 1\nx265 [info]: frame threads / pool features       : 3 / wpp(17 rows)\nx265 [info]: Coding QT: max CU size, min CU size : 64 / 8\nx265 [info]: Residual QT: max TU size, max depth : 32 / 1 inter / 1 intra\nx265 [info]: ME / range / subpel / merge         : star / 57 / 3 / 3\nx265 [info]: Keyframe min / max / scenecut / bias  : 25 / 250 / 40 / 5.00 \nx265 [info]: Lookahead / bframes / badapt        : 25 / 4 / 2\nx265 [info]: b-pyramid / weightp / weightb       : 1 / 1 / 0\nx265 [info]: References / ref-limit  cu / depth  : 4 / on / on\nx265 [info]: AQ: mode / str / qg-size / cu-tree  : 2 / 1.0 / 32 / 1\nx265 [info]: Rate Control / qCompress            : ABR-2500 kbps / 0.60\nx265 [info]: VBV/HRD buffer / max-rate / init    : 2500 / 2500 / 0.750\nx265 [info]: tools: rect limit-modes rd=4 psy-rd=2.00 rdoq=2 psy-rdoq=1.00\nx265 [info]: tools: rskip mode=1 signhide tmvp strong-intra-smoothing lslices=4\nx265 [info]: tools: deblock sao dhdr10-info\nOutput #0, mp4, to 'C:\\Users\\Peter\\Desktop\\stuff\\MIUN\\quantitative_research\\video_compression\\compressed_videos\\BVI-HD\\hevc\\2.5\\SmokeGuns_1920x1080_60fps_hevc.mp4':\n  Metadata:\n    major_brand     : isom\n    minor_version   : 512\n    compatible_brands: isomiso2avc1mp41\n    encoder         : Lavf62.3.100\n  Stream #0:0(und): Video: hevc (hev1 / 0x31766568), yuv420p10le(tv, progressive), 1920x1080, q=2-31, 2500 kb/s, 60 fps, 15360 tbn (default)\n    Metadata:\n      encoder         : Lavc62.11.100 libx265\n      handler_name    : VideoHandler\n      vendor_id       : [0][0][0][0]\n    Side data:\n      cpb: bitrate max/min/avg: 2500000/0/2500000 buffer size: 2500000 vbv_delay: N/A\nframe=    0 fps=0.0 q=0.0 size=       0KiB time=N/A bitrate=N/A speed=N/A elapsed=0:00:00.51    \nframe=    0 fps=0.0 q=0.0 size=       0KiB time=N/A bitrate=N/A speed=N/A elapsed=0:00:01.02    \nframe=    0 fps=0.0 q=0.0 size=       0KiB time=N/A bitrate=N/A speed=N/A elapsed=0:00:01.54    \nframe=    0 fps=0.0 q=0.0 size=       0KiB time=N/A bitrate=N/A speed=N/A elapsed=0:00:02.05    \nframe=    0 fps=0.0 q=0.0 size=       0KiB time=N/A bitrate=N/A speed=N/A elapsed=0:00:02.56    \nframe=    0 fps=0.0 q=0.0 size=       0KiB time=N/A bitrate=N/A speed=N/A elapsed=0:00:03.09    \nframe=    0 fps=0.0 q=0.0 size=       0KiB time=N/A bitrate=N/A speed=N/A elapsed=0:00:03.61    \nframe=    0 fps=0.0 q=0.0 size=       0KiB time=N/A bitrate=N/A speed=N/A elapsed=0:00:04.13    \nframe=    1 fps=0.2 q=39.5 size=       0KiB time=-00:00:00.01 bitrate=N/A speed=N/A elapsed=0:00:04.65    \nframe=    2 fps=0.4 q=42.6 size=       0KiB time=00:00:00.00 bitrate=N/A speed=   0x elapsed=0:00:05.18    \nframe=    4 fps=0.7 q=47.5 size=       0KiB time=00:00:00.03 bitrate=  10.6kbits/s speed=0.00585x elapsed=0:00:05.70    \nframe=    4 fps=0.6 q=47.5 size=       0KiB time=00:00:00.03 bitrate=  10.6kbits/s speed=0.00536x elapsed=0:00:06.21    \nframe=    5 fps=0.7 q=45.4 size=       0KiB time=00:00:00.05 bitrate=   7.0kbits/s speed=0.00744x elapsed=0:00:06.72    \nframe=    6 fps=0.8 q=44.4 size=       0KiB time=00:00:00.06 bitrate=   5.3kbits/s speed=0.00921x elapsed=0:00:07.23    \nframe=    7 fps=0.9 q=37.3 size=       0KiB time=00:00:00.08 bitrate=   4.2kbits/s speed=0.0107x elapsed=0:00:07.75    \nframe=    7 fps=0.8 q=37.3 size=       0KiB time=00:00:00.08 bitrate=   4.2kbits/s speed=0.0101x elapsed=0:00:08.27    \nframe=    9 fps=1.0 q=40.7 size=       0KiB time=00:00:00.11 bitrate=   3.0kbits/s speed=0.0133x elapsed=0:00:08.78    \nframe=    9 fps=1.0 q=40.7 size=       0KiB time=00:00:00.11 bitrate=   3.0kbits/s speed=0.0125x elapsed=0:00:09.31    \nframe=   10 fps=1.0 q=40.0 size=       0KiB time=00:00:00.13 bitrate=   2.6kbits/s speed=0.0136x elapsed=0:00:09.81    \nframe=   10 fps=1.0 q=40.0 size=       0KiB time=00:00:00.13 bitrate=   2.6kbits/s speed=0.0129x elapsed=0:00:10.33    \nframe=   11 fps=1.0 q=39.0 size=       0KiB time=00:00:00.15 bitrate=   2.3kbits/s speed=0.0138x elapsed=0:00:10.85    \nframe=   12 fps=1.1 q=35.2 size=       0KiB time=00:00:00.16 bitrate=   2.1kbits/s speed=0.0147x elapsed=0:00:11.36    \nframe=   13 fps=1.1 q=39.8 size=       0KiB time=00:00:00.18 bitrate=   1.9kbits/s speed=0.0154x elapsed=0:00:11.88    \nframe=   14 fps=1.1 q=39.5 size=       0KiB time=00:00:00.20 bitrate=   1.8kbits/s speed=0.0161x elapsed=0:00:12.39    \nframe=   14 fps=1.1 q=39.5 size=       0KiB time=00:00:00.20 bitrate=   1.8kbits/s speed=0.0155x elapsed=0:00:12.91    \nframe=   15 fps=1.1 q=39.5 size=       0KiB time=00:00:00.21 bitrate=   1.6kbits/s speed=0.0161x elapsed=0:00:13.42    \nframe=   16 fps=1.1 q=39.0 size=       0KiB time=00:00:00.23 bitrate=   1.5kbits/s speed=0.0167x elapsed=0:00:13.94    \nframe=   17 fps=1.2 q=34.0 size=       0KiB time=00:00:00.25 bitrate=   1.4kbits/s speed=0.0173x elapsed=0:00:14.45    \nframe=   18 fps=1.2 q=37.8 size=       0KiB time=00:00:00.26 bitrate=   1.3kbits/s speed=0.0178x elapsed=0:00:14.98    \nframe=   19 fps=1.2 q=38.6 size=       0KiB time=00:00:00.28 bitrate=   1.2kbits/s speed=0.0183x elapsed=0:00:15.49    \nframe=   19 fps=1.2 q=38.6 size=       0KiB time=00:00:00.28 bitrate=   1.2kbits/s speed=0.0177x elapsed=0:00:16.00    \nframe=   19 fps=1.1 q=38.6 size=       0KiB time=00:00:00.28 bitrate=   1.2kbits/s speed=0.0171x elapsed=0:00:16.52    \nframe=   20 fps=1.2 q=38.2 size=       0KiB time=00:00:00.30 bitrate=   1.2kbits/s speed=0.0176x elapsed=0:00:17.03    \nframe=   21 fps=1.2 q=37.8 size=       0KiB time=00:00:00.31 bitrate=   1.1kbits/s speed=0.018x elapsed=0:00:17.55    \nframe=   22 fps=1.2 q=33.5 size=       0KiB time=00:00:00.33 bitrate=   1.1kbits/s speed=0.0185x elapsed=0:00:18.06    \nframe=   23 fps=1.2 q=36.8 size=       0KiB time=00:00:00.35 bitrate=   1.0kbits/s speed=0.0188x elapsed=0:00:18.58    \nframe=   24 fps=1.3 q=37.5 size=       0KiB time=00:00:00.36 bitrate=   1.0kbits/s speed=0.0192x elapsed=0:00:19.10    \nframe=   24 fps=1.2 q=37.5 size=       0KiB time=00:00:00.36 bitrate=   1.0kbits/s speed=0.0187x elapsed=0:00:19.62    \nframe=   25 fps=1.2 q=36.9 size=       0KiB time=00:00:00.38 bitrate=   0.9kbits/s speed=0.019x elapsed=0:00:20.14    \nframe=   26 fps=1.3 q=36.5 size=       0KiB time=00:00:00.40 bitrate=   0.9kbits/s speed=0.0194x elapsed=0:00:20.65    \nframe=   27 fps=1.3 q=32.6 size=       0KiB time=00:00:00.41 bitrate=   0.8kbits/s speed=0.0197x elapsed=0:00:21.18    \nframe=   28 fps=1.3 q=36.2 size=       0KiB time=00:00:00.43 bitrate=   0.8kbits/s speed=0.02x elapsed=0:00:21.69    \nframe=   29 fps=1.3 q=36.5 size=       0KiB time=00:00:00.45 bitrate=   0.8kbits/s speed=0.0203x elapsed=0:00:22.21    \nframe=   29 fps=1.3 q=36.5 size=       0KiB time=00:00:00.45 bitrate=   0.8kbits/s speed=0.0198x elapsed=0:00:22.72    \nframe=   30 fps=1.3 q=36.5 size=       0KiB time=00:00:00.46 bitrate=   0.8kbits/s speed=0.0201x elapsed=0:00:23.24    \nframe=   31 fps=1.3 q=35.9 size=       0KiB time=00:00:00.48 bitrate=   0.7kbits/s speed=0.0203x elapsed=0:00:23.76    \nframe=   32 fps=1.3 q=32.2 size=       0KiB time=00:00:00.50 bitrate=   0.7kbits/s speed=0.0206x elapsed=0:00:24.28    \nframe=   33 fps=1.3 q=35.9 size=       0KiB time=00:00:00.51 bitrate=   0.7kbits/s speed=0.0208x elapsed=0:00:24.78    \nframe=   34 fps=1.3 q=36.6 size=       0KiB time=00:00:00.53 bitrate=   0.7kbits/s speed=0.0211x elapsed=0:00:25.29    \nframe=   35 fps=1.4 q=36.1 size=       0KiB time=00:00:00.55 bitrate=   0.6kbits/s speed=0.0213x elapsed=0:00:25.82    \nframe=   35 fps=1.3 q=36.1 size=       0KiB time=00:00:00.55 bitrate=   0.6kbits/s speed=0.0209x elapsed=0:00:26.33    \nframe=   36 fps=1.3 q=36.0 size=       0KiB time=00:00:00.56 bitrate=   0.6kbits/s speed=0.0211x elapsed=0:00:26.85    \nframe=   37 fps=1.4 q=31.9 size=       0KiB time=00:00:00.58 bitrate=   0.6kbits/s speed=0.0213x elapsed=0:00:27.37    \nframe=   38 fps=1.4 q=35.8 size=       0KiB time=00:00:00.60 bitrate=   0.6kbits/s speed=0.0215x elapsed=0:00:27.88    \nframe=   39 fps=1.4 q=36.3 size=       0KiB time=00:00:00.61 bitrate=   0.6kbits/s speed=0.0217x elapsed=0:00:28.39    \nframe=   39 fps=1.3 q=36.3 size=       0KiB time=00:00:00.61 bitrate=   0.6kbits/s speed=0.0213x elapsed=0:00:28.91    \nframe=   40 fps=1.4 q=35.6 size=       0KiB time=00:00:00.63 bitrate=   0.6kbits/s speed=0.0215x elapsed=0:00:29.43    \nframe=   40 fps=1.3 q=35.6 size=       0KiB time=00:00:00.63 bitrate=   0.6kbits/s speed=0.0211x elapsed=0:00:29.95    \nframe=   41 fps=1.3 q=36.1 size=       0KiB time=00:00:00.65 bitrate=   0.5kbits/s speed=0.0213x elapsed=0:00:30.45    \nframe=   42 fps=1.4 q=31.5 size=       0KiB time=00:00:00.66 bitrate=   0.5kbits/s speed=0.0215x elapsed=0:00:30.98    \nframe=   43 fps=1.4 q=35.3 size=       0KiB time=00:00:00.68 bitrate=   0.5kbits/s speed=0.0217x elapsed=0:00:31.49    \nframe=   44 fps=1.4 q=35.9 size=       0KiB time=00:00:00.70 bitrate=   0.5kbits/s speed=0.0219x elapsed=0:00:32.00    \nframe=   44 fps=1.4 q=35.9 size=       0KiB time=00:00:00.70 bitrate=   0.5kbits/s speed=0.0215x elapsed=0:00:32.53    \nframe=   44 fps=1.3 q=35.9 size=       0KiB time=00:00:00.70 bitrate=   0.5kbits/s speed=0.0212x elapsed=0:00:33.05    \nframe=   44 fps=1.3 q=35.9 size=       0KiB time=00:00:00.70 bitrate=   0.5kbits/s speed=0.0208x elapsed=0:00:33.58    \nframe=   44 fps=1.3 q=35.9 size=       0KiB time=00:00:00.70 bitrate=   0.5kbits/s speed=0.0205x elapsed=0:00:34.10    \nframe=   44 fps=1.3 q=35.9 size=       0KiB time=00:00:00.70 bitrate=   0.5kbits/s speed=0.0202x elapsed=0:00:34.62    \nframe=   44 fps=1.3 q=35.9 size=       0KiB time=00:00:00.70 bitrate=   0.5kbits/s speed=0.0199x elapsed=0:00:35.13    \nframe=   44 fps=1.2 q=35.9 size=       0KiB time=00:00:00.70 bitrate=   0.5kbits/s speed=0.0196x elapsed=0:00:35.65    \nframe=   45 fps=1.2 q=35.0 size=       0KiB time=00:00:00.71 bitrate=   0.5kbits/s speed=0.0198x elapsed=0:00:36.19    \nframe=   46 fps=1.3 q=35.3 size=       0KiB time=00:00:00.73 bitrate=   0.5kbits/s speed=0.02x elapsed=0:00:36.72    \nframe=   46 fps=1.2 q=35.3 size=       0KiB time=00:00:00.73 bitrate=   0.5kbits/s speed=0.0197x elapsed=0:00:37.25    \nframe=   46 fps=1.2 q=35.3 size=       0KiB time=00:00:00.73 bitrate=   0.5kbits/s speed=0.0194x elapsed=0:00:37.78    \nframe=   47 fps=1.2 q=31.6 size=       0KiB time=00:00:00.75 bitrate=   0.5kbits/s speed=0.0196x elapsed=0:00:38.29    \nframe=   47 fps=1.2 q=31.6 size=       0KiB time=00:00:00.75 bitrate=   0.5kbits/s speed=0.0193x elapsed=0:00:38.80    \nframe=   48 fps=1.2 q=35.1 size=       0KiB time=00:00:00.76 bitrate=   0.5kbits/s speed=0.0195x elapsed=0:00:39.34    \nframe=   49 fps=1.2 q=35.8 size=       0KiB time=00:00:00.78 bitrate=   0.4kbits/s speed=0.0196x elapsed=0:00:39.88    \nframe=   49 fps=1.2 q=35.8 size=       0KiB time=00:00:00.78 bitrate=   0.4kbits/s speed=0.0194x elapsed=0:00:40.43    \nframe=   49 fps=1.2 q=35.8 size=       0KiB time=00:00:00.78 bitrate=   0.4kbits/s speed=0.0191x elapsed=0:00:40.97    \nframe=   49 fps=1.2 q=35.8 size=       0KiB time=00:00:00.78 bitrate=   0.4kbits/s speed=0.0189x elapsed=0:00:41.52    \nframe=   49 fps=1.2 q=35.8 size=       0KiB time=00:00:00.78 bitrate=   0.4kbits/s speed=0.0186x elapsed=0:00:42.06    \nframe=   49 fps=1.2 q=35.8 size=       0KiB time=00:00:00.78 bitrate=   0.4kbits/s speed=0.0184x elapsed=0:00:42.58    \nframe=   49 fps=1.1 q=35.8 size=       0KiB time=00:00:00.78 bitrate=   0.4kbits/s speed=0.0182x elapsed=0:00:43.11    \nframe=   50 fps=1.1 q=35.4 size=       0KiB time=00:00:00.80 bitrate=   0.4kbits/s speed=0.0183x elapsed=0:00:43.63    \nframe=   50 fps=1.1 q=35.4 size=       0KiB time=00:00:00.80 bitrate=   0.4kbits/s speed=0.0181x elapsed=0:00:44.14    \nframe=   51 fps=1.1 q=35.4 size=       0KiB time=00:00:00.81 bitrate=   0.4kbits/s speed=0.0183x elapsed=0:00:44.66    \nframe=   51 fps=1.1 q=35.4 size=       0KiB time=00:00:00.81 bitrate=   0.4kbits/s speed=0.0181x elapsed=0:00:45.19    \nframe=   53 fps=1.2 q=35.1 size=       0KiB time=00:00:00.85 bitrate=   0.4kbits/s speed=0.0186x elapsed=0:00:45.70    \nframe=   53 fps=1.1 q=35.1 size=       0KiB time=00:00:00.85 bitrate=   0.4kbits/s speed=0.0184x elapsed=0:00:46.22    \nframe=   54 fps=1.2 q=35.9 size=       0KiB time=00:00:00.86 bitrate=   0.4kbits/s speed=0.0185x elapsed=0:00:46.75    \nframe=   54 fps=1.1 q=35.9 size=       0KiB time=00:00:00.86 bitrate=   0.4kbits/s speed=0.0183x elapsed=0:00:47.29    \nframe=   54 fps=1.1 q=35.9 size=       0KiB time=00:00:00.86 bitrate=   0.4kbits/s speed=0.0181x elapsed=0:00:47.81    \nframe=   54 fps=1.1 q=35.9 size=       0KiB time=00:00:00.86 bitrate=   0.4kbits/s speed=0.0179x elapsed=0:00:48.33    \nframe=   54 fps=1.1 q=35.9 size=       0KiB time=00:00:00.86 bitrate=   0.4kbits/s speed=0.0177x elapsed=0:00:48.86    \nframe=   54 fps=1.1 q=35.9 size=       0KiB time=00:00:00.86 bitrate=   0.4kbits/s speed=0.0176x elapsed=0:00:49.37    \nframe=   54 fps=1.1 q=35.9 size=       0KiB time=00:00:00.86 bitrate=   0.4kbits/s speed=0.0174x elapsed=0:00:49.89    \nframe=   55 fps=1.1 q=35.4 size=       0KiB time=00:00:00.88 bitrate=   0.4kbits/s speed=0.0175x elapsed=0:00:50.44    \nframe=   55 fps=1.1 q=35.4 size=       0KiB time=00:00:00.88 bitrate=   0.4kbits/s speed=0.0173x elapsed=0:00:50.96    \nframe=   56 fps=1.1 q=35.5 size=       0KiB time=00:00:00.90 bitrate=   0.4kbits/s speed=0.0175x elapsed=0:00:51.47    \nframe=   56 fps=1.1 q=35.5 size=       0KiB time=00:00:00.90 bitrate=   0.4kbits/s speed=0.0173x elapsed=0:00:52.02    \nframe=   57 fps=1.1 q=30.7 size=       0KiB time=00:00:00.91 bitrate=   0.4kbits/s speed=0.0174x elapsed=0:00:52.56    \nframe=   57 fps=1.1 q=30.7 size=       0KiB time=00:00:00.91 bitrate=   0.4kbits/s speed=0.0173x elapsed=0:00:53.08    \nframe=   57 fps=1.1 q=30.7 size=       0KiB time=00:00:00.91 bitrate=   0.4kbits/s speed=0.0171x elapsed=0:00:53.61    \nframe=   58 fps=1.1 q=34.8 size=     256KiB time=00:00:00.93 bitrate=2247.3kbits/s speed=0.0172x elapsed=0:00:54.14    \nframe=   58 fps=1.1 q=34.8 size=     256KiB time=00:00:00.93 bitrate=2247.3kbits/s speed=0.0171x elapsed=0:00:54.67    \nframe=   58 fps=1.1 q=34.8 size=     256KiB time=00:00:00.93 bitrate=2247.3kbits/s speed=0.0169x elapsed=0:00:55.20    \nframe=   59 fps=1.1 q=36.1 size=     256KiB time=00:00:00.95 bitrate=2207.9kbits/s speed=0.0171x elapsed=0:00:55.70    \nframe=   59 fps=1.0 q=36.1 size=     256KiB time=00:00:00.95 bitrate=2207.9kbits/s speed=0.0169x elapsed=0:00:56.23    \nframe=   59 fps=1.0 q=36.1 size=     256KiB time=00:00:00.95 bitrate=2207.9kbits/s speed=0.0167x elapsed=0:00:56.75    \nframe=   59 fps=1.0 q=36.1 size=     256KiB time=00:00:00.95 bitrate=2207.9kbits/s speed=0.0166x elapsed=0:00:57.27    \nframe=   59 fps=1.0 q=36.1 size=     256KiB time=00:00:00.95 bitrate=2207.9kbits/s speed=0.0164x elapsed=0:00:57.79    \nframe=   59 fps=1.0 q=36.1 size=     256KiB time=00:00:00.95 bitrate=2207.9kbits/s speed=0.0163x elapsed=0:00:58.32    \nframe=   60 fps=1.0 q=35.9 size=     256KiB time=00:00:00.96 bitrate=2169.8kbits/s speed=0.0164x elapsed=0:00:58.85    \nframe=   60 fps=1.0 q=35.9 size=     256KiB time=00:00:00.96 bitrate=2169.8kbits/s speed=0.0163x elapsed=0:00:59.36    \nframe=   60 fps=1.0 q=35.9 size=     256KiB time=00:00:00.96 bitrate=2169.8kbits/s speed=0.0161x elapsed=0:00:59.88    \nframe=   60 fps=1.0 q=35.9 size=     256KiB time=00:00:00.96 bitrate=2169.8kbits/s speed=0.016x elapsed=0:01:00.42    \nframe=   60 fps=1.0 q=35.9 size=     256KiB time=00:00:00.96 bitrate=2169.8kbits/s speed=0.0159x elapsed=0:01:00.96    \nframe=   61 fps=1.0 q=36.3 size=     256KiB time=00:00:00.98 bitrate=2133.1kbits/s speed=0.016x elapsed=0:01:01.47    \nframe=   61 fps=1.0 q=36.3 size=     256KiB time=00:00:00.98 bitrate=2133.1kbits/s speed=0.0159x elapsed=0:01:01.98    \nframe=   62 fps=1.0 q=30.7 size=     256KiB time=00:00:01.00 bitrate=2097.5kbits/s speed=0.016x elapsed=0:01:02.50    \nframe=   62 fps=1.0 q=30.7 size=     256KiB time=00:00:01.00 bitrate=2097.5kbits/s speed=0.0159x elapsed=0:01:03.01    \nframe=   62 fps=1.0 q=30.7 size=     256KiB time=00:00:01.00 bitrate=2097.5kbits/s speed=0.0157x elapsed=0:01:03.54    \nframe=   63 fps=1.0 q=35.0 size=     256KiB time=00:00:01.01 bitrate=2063.1kbits/s speed=0.0159x elapsed=0:01:04.08    \nframe=   64 fps=1.0 q=36.2 size=     256KiB time=00:00:01.03 bitrate=2029.8kbits/s speed=0.016x elapsed=0:01:04.63    \nframe=   64 fps=1.0 q=36.2 size=     256KiB time=00:00:01.03 bitrate=2029.8kbits/s speed=0.0159x elapsed=0:01:05.16    \nframe=   64 fps=1.0 q=36.2 size=     256KiB time=00:00:01.03 bitrate=2029.8kbits/s speed=0.0157x elapsed=0:01:05.67    \nframe=   64 fps=1.0 q=36.2 size=     256KiB time=00:00:01.03 bitrate=2029.8kbits/s speed=0.0156x elapsed=0:01:06.19    \nframe=   64 fps=1.0 q=36.2 size=     256KiB time=00:00:01.03 bitrate=2029.8kbits/s speed=0.0155x elapsed=0:01:06.74    \nframe=   64 fps=1.0 q=36.2 size=     256KiB time=00:00:01.03 bitrate=2029.8kbits/s speed=0.0154x elapsed=0:01:07.31    \nframe=   64 fps=0.9 q=36.2 size=     256KiB time=00:00:01.03 bitrate=2029.8kbits/s speed=0.0152x elapsed=0:01:07.82    \nframe=   64 fps=0.9 q=36.2 size=     256KiB time=00:00:01.03 bitrate=2029.8kbits/s speed=0.0151x elapsed=0:01:08.34    \nframe=   64 fps=0.9 q=36.2 size=     256KiB time=00:00:01.03 bitrate=2029.8kbits/s speed=0.015x elapsed=0:01:08.87    \nframe=   64 fps=0.9 q=36.2 size=     256KiB time=00:00:01.03 bitrate=2029.8kbits/s speed=0.0149x elapsed=0:01:09.42    \nframe=   65 fps=0.9 q=36.0 size=     256KiB time=00:00:01.05 bitrate=1997.6kbits/s speed=0.015x elapsed=0:01:09.95    \nframe=   65 fps=0.9 q=36.0 size=     256KiB time=00:00:01.05 bitrate=1997.6kbits/s speed=0.0149x elapsed=0:01:10.48    \nframe=   65 fps=0.9 q=36.0 size=     256KiB time=00:00:01.05 bitrate=1997.6kbits/s speed=0.0148x elapsed=0:01:11.02    \nframe=   66 fps=0.9 q=36.2 size=     256KiB time=00:00:01.06 bitrate=1966.4kbits/s speed=0.0149x elapsed=0:01:11.56    \nframe=   66 fps=0.9 q=36.2 size=     256KiB time=00:00:01.06 bitrate=1966.4kbits/s speed=0.0148x elapsed=0:01:12.08    \nframe=   66 fps=0.9 q=36.2 size=     256KiB time=00:00:01.06 bitrate=1966.4kbits/s speed=0.0147x elapsed=0:01:12.62    \nframe=   66 fps=0.9 q=36.2 size=     256KiB time=00:00:01.06 bitrate=1966.4kbits/s speed=0.0146x elapsed=0:01:13.17    \nframe=   67 fps=0.9 q=31.4 size=     256KiB time=00:00:01.08 bitrate=1936.2kbits/s speed=0.0147x elapsed=0:01:13.69    \nframe=   67 fps=0.9 q=31.4 size=     256KiB time=00:00:01.08 bitrate=1936.2kbits/s speed=0.0146x elapsed=0:01:14.22    \nframe=   67 fps=0.9 q=31.4 size=     256KiB time=00:00:01.08 bitrate=1936.2kbits/s speed=0.0145x elapsed=0:01:14.74    \nframe=   68 fps=0.9 q=35.1 size=     256KiB time=00:00:01.10 bitrate=1906.8kbits/s speed=0.0146x elapsed=0:01:15.25    \nframe=   68 fps=0.9 q=35.1 size=     256KiB time=00:00:01.10 bitrate=1906.8kbits/s speed=0.0145x elapsed=0:01:15.80    \nframe=   69 fps=0.9 q=36.2 size=     256KiB time=00:00:01.11 bitrate=1878.4kbits/s speed=0.0146x elapsed=0:01:16.34    \nframe=   69 fps=0.9 q=36.2 size=     256KiB time=00:00:01.11 bitrate=1878.4kbits/s speed=0.0145x elapsed=0:01:16.88    \nframe=   69 fps=0.9 q=36.2 size=     256KiB time=00:00:01.11 bitrate=1878.4kbits/s speed=0.0144x elapsed=0:01:17.39    \nframe=   69 fps=0.9 q=36.2 size=     256KiB time=00:00:01.11 bitrate=1878.4kbits/s speed=0.0143x elapsed=0:01:17.91    \nframe=   69 fps=0.9 q=36.2 size=     256KiB time=00:00:01.11 bitrate=1878.4kbits/s speed=0.0142x elapsed=0:01:18.44    \nframe=   69 fps=0.9 q=36.2 size=     256KiB time=00:00:01.11 bitrate=1878.4kbits/s speed=0.0141x elapsed=0:01:18.96    \nframe=   69 fps=0.9 q=36.2 size=     256KiB time=00:00:01.11 bitrate=1878.4kbits/s speed=0.014x elapsed=0:01:19.49    \nframe=   70 fps=0.9 q=35.9 size=     256KiB time=00:00:01.13 bitrate=1850.7kbits/s speed=0.0142x elapsed=0:01:20.00    \nframe=   70 fps=0.9 q=35.9 size=     256KiB time=00:00:01.13 bitrate=1850.7kbits/s speed=0.0141x elapsed=0:01:20.52    \nframe=   70 fps=0.9 q=35.9 size=     256KiB time=00:00:01.13 bitrate=1850.7kbits/s speed=0.014x elapsed=0:01:21.07    \nframe=   70 fps=0.9 q=35.9 size=     256KiB time=00:00:01.13 bitrate=1850.7kbits/s speed=0.0139x elapsed=0:01:21.59    \nframe=   70 fps=0.9 q=35.9 size=     256KiB time=00:00:01.13 bitrate=1850.7kbits/s speed=0.0138x elapsed=0:01:22.12    \nframe=   70 fps=0.8 q=35.9 size=     256KiB time=00:00:01.13 bitrate=1850.7kbits/s speed=0.0137x elapsed=0:01:22.64    \nframe=   71 fps=0.9 q=36.3 size=     256KiB time=00:00:01.15 bitrate=1823.9kbits/s speed=0.0138x elapsed=0:01:23.16    \nframe=   71 fps=0.8 q=36.3 size=     256KiB time=00:00:01.15 bitrate=1823.9kbits/s speed=0.0137x elapsed=0:01:23.71    \nframe=   72 fps=0.9 q=30.7 size=     256KiB time=00:00:01.16 bitrate=1797.9kbits/s speed=0.0139x elapsed=0:01:24.22    \nframe=   72 fps=0.8 q=30.7 size=     256KiB time=00:00:01.16 bitrate=1797.9kbits/s speed=0.0138x elapsed=0:01:24.74    \nframe=   72 fps=0.8 q=30.7 size=     256KiB time=00:00:01.16 bitrate=1797.9kbits/s speed=0.0137x elapsed=0:01:25.31    \nframe=   72 fps=0.8 q=30.7 size=     256KiB time=00:00:01.16 bitrate=1797.9kbits/s speed=0.0136x elapsed=0:01:25.86    \nframe=   72 fps=0.8 q=30.7 size=     256KiB time=00:00:01.16 bitrate=1797.9kbits/s speed=0.0135x elapsed=0:01:26.43    \nframe=   72 fps=0.8 q=30.7 size=     256KiB time=00:00:01.16 bitrate=1797.9kbits/s speed=0.0134x elapsed=0:01:27.03    \nframe=   72 fps=0.8 q=30.7 size=     256KiB time=00:00:01.16 bitrate=1797.9kbits/s speed=0.0133x elapsed=0:01:27.61    \nframe=   72 fps=0.8 q=30.7 size=     256KiB time=00:00:01.16 bitrate=1797.9kbits/s speed=0.0132x elapsed=0:01:28.22    \nframe=   72 fps=0.8 q=30.7 size=     256KiB time=00:00:01.16 bitrate=1797.9kbits/s speed=0.0131x elapsed=0:01:28.89    \nframe=   72 fps=0.8 q=30.7 size=     256KiB time=00:00:01.16 bitrate=1797.9kbits/s speed=0.013x elapsed=0:01:29.43    \nframe=   72 fps=0.8 q=30.7 size=     256KiB time=00:00:01.16 bitrate=1797.9kbits/s speed=0.013x elapsed=0:01:29.98    \nframe=   72 fps=0.8 q=30.7 size=     256KiB time=00:00:01.16 bitrate=1797.9kbits/s speed=0.0129x elapsed=0:01:30.56    \nframe=   72 fps=0.8 q=30.7 size=     256KiB time=00:00:01.16 bitrate=1797.9kbits/s speed=0.0128x elapsed=0:01:31.15    \nframe=   73 fps=0.8 q=34.8 size=     256KiB time=00:00:01.18 bitrate=1772.5kbits/s speed=0.0129x elapsed=0:01:31.67    \nframe=   73 fps=0.8 q=34.8 size=     256KiB time=00:00:01.18 bitrate=1772.5kbits/s speed=0.0128x elapsed=0:01:32.19    \nframe=   74 fps=0.8 q=36.1 size=     256KiB time=00:00:01.20 bitrate=1747.9kbits/s speed=0.0129x elapsed=0:01:32.72    \nframe=   74 fps=0.8 q=36.1 size=     256KiB time=00:00:01.20 bitrate=1747.9kbits/s speed=0.0129x elapsed=0:01:33.25    \nframe=   74 fps=0.8 q=36.1 size=     256KiB time=00:00:01.20 bitrate=1747.9kbits/s speed=0.0128x elapsed=0:01:33.80    \nframe=   74 fps=0.8 q=36.1 size=     256KiB time=00:00:01.20 bitrate=1747.9kbits/s speed=0.0127x elapsed=0:01:34.35    \nframe=   74 fps=0.8 q=36.1 size=     256KiB time=00:00:01.20 bitrate=1747.9kbits/s speed=0.0126x elapsed=0:01:34.89    \nframe=   74 fps=0.8 q=36.1 size=     256KiB time=00:00:01.20 bitrate=1747.9kbits/s speed=0.0126x elapsed=0:01:35.41    \nframe=   74 fps=0.8 q=36.1 size=     256KiB time=00:00:01.20 bitrate=1747.9kbits/s speed=0.0125x elapsed=0:01:35.94    \nframe=   74 fps=0.8 q=36.1 size=     256KiB time=00:00:01.20 bitrate=1747.9kbits/s speed=0.0124x elapsed=0:01:36.48    \nframe=   75 fps=0.8 q=36.1 size=     256KiB time=00:00:01.21 bitrate=1724.0kbits/s speed=0.0125x elapsed=0:01:37.01    \nframe=   75 fps=0.8 q=36.1 size=     256KiB time=00:00:01.21 bitrate=1724.0kbits/s speed=0.0125x elapsed=0:01:37.52    \nframe=   75 fps=0.8 q=36.1 size=     256KiB time=00:00:01.21 bitrate=1724.0kbits/s speed=0.0124x elapsed=0:01:38.05    \nframe=   75 fps=0.8 q=36.1 size=     256KiB time=00:00:01.21 bitrate=1724.0kbits/s speed=0.0123x elapsed=0:01:38.60    \nframe=   75 fps=0.8 q=36.1 size=     256KiB time=00:00:01.21 bitrate=1724.0kbits/s speed=0.0123x elapsed=0:01:39.12    \nframe=   76 fps=0.8 q=36.4 size=     256KiB time=00:00:01.23 bitrate=1700.7kbits/s speed=0.0124x elapsed=0:01:39.65    \nframe=   76 fps=0.8 q=36.4 size=     256KiB time=00:00:01.23 bitrate=1700.7kbits/s speed=0.0123x elapsed=0:01:40.20    \nframe=   77 fps=0.8 q=30.7 size=     256KiB time=00:00:01.25 bitrate=1678.0kbits/s speed=0.0124x elapsed=0:01:40.75    \nframe=   77 fps=0.8 q=30.7 size=     256KiB time=00:00:01.25 bitrate=1678.0kbits/s speed=0.0123x elapsed=0:01:41.28    \nframe=   77 fps=0.8 q=30.7 size=     256KiB time=00:00:01.25 bitrate=1678.0kbits/s speed=0.0123x elapsed=0:01:41.81    \nframe=   78 fps=0.8 q=34.7 size=     256KiB time=00:00:01.26 bitrate=1655.9kbits/s speed=0.0124x elapsed=0:01:42.34    \nframe=   79 fps=0.8 q=36.0 size=     256KiB time=00:00:01.28 bitrate=1634.4kbits/s speed=0.0125x elapsed=0:01:42.88    \nframe=   79 fps=0.8 q=36.0 size=     256KiB time=00:00:01.28 bitrate=1634.4kbits/s speed=0.0124x elapsed=0:01:43.41    \nframe=   79 fps=0.8 q=36.0 size=     256KiB time=00:00:01.28 bitrate=1634.4kbits/s speed=0.0123x elapsed=0:01:43.92    \nframe=   79 fps=0.8 q=36.0 size=     256KiB time=00:00:01.28 bitrate=1634.4kbits/s speed=0.0123x elapsed=0:01:44.45    \nframe=   79 fps=0.8 q=36.0 size=     256KiB time=00:00:01.28 bitrate=1634.4kbits/s speed=0.0122x elapsed=0:01:44.99    \nframe=   79 fps=0.7 q=36.0 size=     256KiB time=00:00:01.28 bitrate=1634.4kbits/s speed=0.0122x elapsed=0:01:45.52    \nframe=   80 fps=0.8 q=36.0 size=     256KiB time=00:00:01.30 bitrate=1613.5kbits/s speed=0.0123x elapsed=0:01:46.04    \nframe=   80 fps=0.8 q=36.0 size=     256KiB time=00:00:01.30 bitrate=1613.5kbits/s speed=0.0122x elapsed=0:01:46.59    \nframe=   80 fps=0.7 q=36.0 size=     256KiB time=00:00:01.30 bitrate=1613.5kbits/s speed=0.0121x elapsed=0:01:47.11    \nframe=   80 fps=0.7 q=36.0 size=     256KiB time=00:00:01.30 bitrate=1613.5kbits/s speed=0.0121x elapsed=0:01:47.63    \nframe=   80 fps=0.7 q=36.0 size=     256KiB time=00:00:01.30 bitrate=1613.5kbits/s speed=0.012x elapsed=0:01:48.16    \nframe=   81 fps=0.7 q=36.1 size=     256KiB time=00:00:01.31 bitrate=1593.0kbits/s speed=0.0121x elapsed=0:01:48.68    \nframe=   81 fps=0.7 q=36.1 size=     256KiB time=00:00:01.31 bitrate=1593.0kbits/s speed=0.0121x elapsed=0:01:49.20    \nframe=   81 fps=0.7 q=36.1 size=     256KiB time=00:00:01.31 bitrate=1593.0kbits/s speed=0.012x elapsed=0:01:49.72    \nframe=   81 fps=0.7 q=36.1 size=     256KiB time=00:00:01.31 bitrate=1593.0kbits/s speed=0.0119x elapsed=0:01:50.24    \nframe=   81 fps=0.7 q=36.1 size=     256KiB time=00:00:01.31 bitrate=1593.0kbits/s speed=0.0119x elapsed=0:01:50.77    \nframe=   82 fps=0.7 q=31.4 size=     256KiB time=00:00:01.33 bitrate=1573.1kbits/s speed=0.012x elapsed=0:01:51.31    \nframe=   82 fps=0.7 q=31.4 size=     256KiB time=00:00:01.33 bitrate=1573.1kbits/s speed=0.0119x elapsed=0:01:51.84    \nframe=   83 fps=0.7 q=34.9 size=     256KiB time=00:00:01.35 bitrate=1553.7kbits/s speed=0.012x elapsed=0:01:52.37    \nframe=   83 fps=0.7 q=34.9 size=     256KiB time=00:00:01.35 bitrate=1553.7kbits/s speed=0.012x elapsed=0:01:52.89    \nframe=   84 fps=0.7 q=36.0 size=     256KiB time=00:00:01.36 bitrate=1534.8kbits/s speed=0.012x elapsed=0:01:53.41    \nframe=   84 fps=0.7 q=36.0 size=     256KiB time=00:00:01.36 bitrate=1534.8kbits/s speed=0.012x elapsed=0:01:53.94    \nframe=   84 fps=0.7 q=36.0 size=     256KiB time=00:00:01.36 bitrate=1534.8kbits/s speed=0.0119x elapsed=0:01:54.46    \nframe=   84 fps=0.7 q=36.0 size=     256KiB time=00:00:01.36 bitrate=1534.8kbits/s speed=0.0119x elapsed=0:01:54.99    \nframe=   84 fps=0.7 q=36.0 size=     256KiB time=00:00:01.36 bitrate=1534.8kbits/s speed=0.0118x elapsed=0:01:55.50    \nframe=   84 fps=0.7 q=36.0 size=     256KiB time=00:00:01.36 bitrate=1534.8kbits/s speed=0.0118x elapsed=0:01:56.02    \nframe=   84 fps=0.7 q=36.0 size=     256KiB time=00:00:01.36 bitrate=1534.8kbits/s speed=0.0117x elapsed=0:01:56.54    \nframe=   85 fps=0.7 q=36.1 size=     256KiB time=00:00:01.38 bitrate=1516.3kbits/s speed=0.0118x elapsed=0:01:57.07    \nframe=   85 fps=0.7 q=36.1 size=     256KiB time=00:00:01.38 bitrate=1516.3kbits/s speed=0.0118x elapsed=0:01:57.60    \nframe=   85 fps=0.7 q=36.1 size=     256KiB time=00:00:01.38 bitrate=1516.3kbits/s speed=0.0117x elapsed=0:01:58.11    \nframe=   86 fps=0.7 q=36.2 size=     256KiB time=00:00:01.38 bitrate=1516.3kbits/s speed=0.0117x elapsed=0:01:58.65    \nframe=   86 fps=0.7 q=36.2 size=     256KiB time=00:00:01.40 bitrate=1498.2kbits/s speed=0.0117x elapsed=0:01:59.18    \nframe=   86 fps=0.7 q=36.2 size=     256KiB time=00:00:01.40 bitrate=1498.2kbits/s speed=0.0117x elapsed=0:01:59.71    \nframe=   87 fps=0.7 q=31.6 size=     256KiB time=00:00:01.41 bitrate=1480.6kbits/s speed=0.0118x elapsed=0:02:00.22    \nframe=   87 fps=0.7 q=31.6 size=     256KiB time=00:00:01.41 bitrate=1480.6kbits/s speed=0.0117x elapsed=0:02:00.73    \nframe=   88 fps=0.7 q=35.1 size=     256KiB time=00:00:01.43 bitrate=1463.4kbits/s speed=0.0118x elapsed=0:02:01.25    \nframe=   89 fps=0.7 q=36.3 size=     256KiB time=00:00:01.45 bitrate=1446.6kbits/s speed=0.0119x elapsed=0:02:01.80    \nframe=   89 fps=0.7 q=36.3 size=     256KiB time=00:00:01.45 bitrate=1446.6kbits/s speed=0.0119x elapsed=0:02:02.36    \nframe=   89 fps=0.7 q=36.3 size=     256KiB time=00:00:01.45 bitrate=1446.6kbits/s speed=0.0118x elapsed=0:02:02.88    \nframe=   89 fps=0.7 q=36.3 size=     256KiB time=00:00:01.45 bitrate=1446.6kbits/s speed=0.0118x elapsed=0:02:03.40    \nframe=   89 fps=0.7 q=36.3 size=     256KiB time=00:00:01.45 bitrate=1446.6kbits/s speed=0.0117x elapsed=0:02:03.91    \nframe=   89 fps=0.7 q=36.3 size=     256KiB time=00:00:01.45 bitrate=1446.6kbits/s speed=0.0117x elapsed=0:02:04.43    \nframe=   89 fps=0.7 q=36.3 size=     256KiB time=00:00:01.45 bitrate=1446.6kbits/s speed=0.0116x elapsed=0:02:04.94    \nframe=   89 fps=0.7 q=36.3 size=     256KiB time=00:00:01.45 bitrate=1446.6kbits/s speed=0.0116x elapsed=0:02:05.47    \nframe=   89 fps=0.7 q=36.3 size=     256KiB time=00:00:01.45 bitrate=1446.6kbits/s speed=0.0115x elapsed=0:02:06.02    \nframe=   90 fps=0.7 q=36.1 size=     256KiB time=00:00:01.46 bitrate=1430.1kbits/s speed=0.0116x elapsed=0:02:06.55    \nframe=   90 fps=0.7 q=36.1 size=     256KiB time=00:00:01.46 bitrate=1430.1kbits/s speed=0.0115x elapsed=0:02:07.09    \nframe=   90 fps=0.7 q=36.1 size=     256KiB time=00:00:01.46 bitrate=1430.1kbits/s speed=0.0115x elapsed=0:02:07.61    \nframe=   91 fps=0.7 q=36.3 size=     256KiB time=00:00:01.46 bitrate=1430.1kbits/s speed=0.0114x elapsed=0:02:08.14    \nframe=   91 fps=0.7 q=36.3 size=     256KiB time=00:00:01.48 bitrate=1414.0kbits/s speed=0.0115x elapsed=0:02:08.69    \nframe=   91 fps=0.7 q=36.3 size=     256KiB time=00:00:01.48 bitrate=1414.0kbits/s speed=0.0115x elapsed=0:02:09.25    \nframe=   92 fps=0.7 q=31.5 size=     256KiB time=00:00:01.50 bitrate=1398.3kbits/s speed=0.0116x elapsed=0:02:09.77    \nframe=   92 fps=0.7 q=31.5 size=     256KiB time=00:00:01.50 bitrate=1398.3kbits/s speed=0.0115x elapsed=0:02:10.31    \nframe=   92 fps=0.7 q=31.5 size=     256KiB time=00:00:01.50 bitrate=1398.3kbits/s speed=0.0115x elapsed=0:02:10.86    \nframe=   93 fps=0.7 q=35.0 size=     256KiB time=00:00:01.51 bitrate=1383.0kbits/s speed=0.0115x elapsed=0:02:11.37    \nframe=   93 fps=0.7 q=35.0 size=     256KiB time=00:00:01.51 bitrate=1383.0kbits/s speed=0.0115x elapsed=0:02:11.90    \nframe=   93 fps=0.7 q=35.0 size=     256KiB time=00:00:01.51 bitrate=1383.0kbits/s speed=0.0115x elapsed=0:02:12.45    \nframe=   94 fps=0.7 q=36.3 size=     256KiB time=00:00:01.53 bitrate=1367.9kbits/s speed=0.0115x elapsed=0:02:12.97    \nframe=   94 fps=0.7 q=36.3 size=     256KiB time=00:00:01.53 bitrate=1367.9kbits/s speed=0.0115x elapsed=0:02:13.49    \nframe=   94 fps=0.7 q=36.3 size=     256KiB time=00:00:01.53 bitrate=1367.9kbits/s speed=0.0114x elapsed=0:02:14.01    \nframe=   94 fps=0.7 q=36.3 size=     256KiB time=00:00:01.53 bitrate=1367.9kbits/s speed=0.0114x elapsed=0:02:14.55    \nframe=   94 fps=0.7 q=36.3 size=     256KiB time=00:00:01.53 bitrate=1367.9kbits/s speed=0.0114x elapsed=0:02:15.08    \nframe=   94 fps=0.7 q=36.3 size=     256KiB time=00:00:01.53 bitrate=1367.9kbits/s speed=0.0113x elapsed=0:02:15.60    \nframe=   94 fps=0.7 q=36.3 size=     256KiB time=00:00:01.53 bitrate=1367.9kbits/s speed=0.0113x elapsed=0:02:16.13    \nframe=   95 fps=0.7 q=36.2 size=     256KiB time=00:00:01.55 bitrate=1353.2kbits/s speed=0.0113x elapsed=0:02:16.65    \nframe=   95 fps=0.7 q=36.2 size=     256KiB time=00:00:01.55 bitrate=1353.2kbits/s speed=0.0113x elapsed=0:02:17.17    \nframe=   95 fps=0.7 q=36.2 size=     256KiB time=00:00:01.55 bitrate=1353.2kbits/s speed=0.0113x elapsed=0:02:17.72    \nframe=   95 fps=0.7 q=36.2 size=     256KiB time=00:00:01.55 bitrate=1353.2kbits/s speed=0.0112x elapsed=0:02:18.27    \nframe=   95 fps=0.7 q=36.2 size=     256KiB time=00:00:01.55 bitrate=1353.2kbits/s speed=0.0112x elapsed=0:02:18.80    \nframe=   96 fps=0.7 q=36.3 size=     256KiB time=00:00:01.56 bitrate=1338.8kbits/s speed=0.0112x elapsed=0:02:19.34    \nframe=   96 fps=0.7 q=36.3 size=     256KiB time=00:00:01.56 bitrate=1338.8kbits/s speed=0.0112x elapsed=0:02:19.86    \nframe=   97 fps=0.7 q=31.6 size=     256KiB time=00:00:01.58 bitrate=1324.7kbits/s speed=0.0113x elapsed=0:02:20.37    \nframe=   97 fps=0.7 q=31.6 size=     256KiB time=00:00:01.58 bitrate=1324.7kbits/s speed=0.0112x elapsed=0:02:20.92    \nframe=   97 fps=0.7 q=31.6 size=     256KiB time=00:00:01.58 bitrate=1324.7kbits/s speed=0.0112x elapsed=0:02:21.44    \nframe=   98 fps=0.7 q=35.5 size=     256KiB time=00:00:01.60 bitrate=1310.9kbits/s speed=0.0113x elapsed=0:02:21.96    \nframe=   98 fps=0.7 q=35.5 size=     256KiB time=00:00:01.60 bitrate=1310.9kbits/s speed=0.0112x elapsed=0:02:22.51    \nframe=   99 fps=0.7 q=36.9 size=     256KiB time=00:00:01.61 bitrate=1297.4kbits/s speed=0.0113x elapsed=0:02:23.02    \nframe=   99 fps=0.7 q=36.9 size=     256KiB time=00:00:01.61 bitrate=1297.4kbits/s speed=0.0113x elapsed=0:02:23.54    \nframe=   99 fps=0.7 q=36.9 size=     256KiB time=00:00:01.61 bitrate=1297.4kbits/s speed=0.0112x elapsed=0:02:24.09    \nframe=   99 fps=0.7 q=36.9 size=     256KiB time=00:00:01.61 bitrate=1297.4kbits/s speed=0.0112x elapsed=0:02:24.60    \nframe=   99 fps=0.7 q=36.9 size=     256KiB time=00:00:01.61 bitrate=1297.4kbits/s speed=0.0111x elapsed=0:02:25.14    \nframe=   99 fps=0.7 q=36.9 size=     256KiB time=00:00:01.61 bitrate=1297.4kbits/s speed=0.0111x elapsed=0:02:25.67    \nframe=   99 fps=0.7 q=36.9 size=     256KiB time=00:00:01.61 bitrate=1297.4kbits/s speed=0.0111x elapsed=0:02:26.21    \nframe=   99 fps=0.7 q=36.9 size=     256KiB time=00:00:01.61 bitrate=1297.4kbits/s speed=0.011x elapsed=0:02:26.76    \nframe=  100 fps=0.7 q=36.8 size=     256KiB time=00:00:01.63 bitrate=1284.2kbits/s speed=0.0111x elapsed=0:02:27.29    \nframe=  100 fps=0.7 q=36.8 size=     256KiB time=00:00:01.63 bitrate=1284.2kbits/s speed=0.011x elapsed=0:02:27.86    \nframe=  100 fps=0.7 q=36.8 size=     256KiB time=00:00:01.63 bitrate=1284.2kbits/s speed=0.011x elapsed=0:02:28.38    \nframe=  100 fps=0.7 q=36.8 size=     256KiB time=00:00:01.63 bitrate=1284.2kbits/s speed=0.011x elapsed=0:02:28.90    \nframe=  100 fps=0.7 q=36.8 size=     256KiB time=00:00:01.63 bitrate=1284.2kbits/s speed=0.0109x elapsed=0:02:29.43    \nframe=  100 fps=0.7 q=36.8 size=     256KiB time=00:00:01.63 bitrate=1284.2kbits/s speed=0.0109x elapsed=0:02:29.96    \nframe=  101 fps=0.7 q=36.9 size=     256KiB time=00:00:01.65 bitrate=1271.2kbits/s speed=0.011x elapsed=0:02:30.47    \nframe=  101 fps=0.7 q=36.9 size=     256KiB time=00:00:01.65 bitrate=1271.2kbits/s speed=0.0109x elapsed=0:02:31.01    \nframe=  102 fps=0.7 q=32.2 size=     256KiB time=00:00:01.66 bitrate=1258.5kbits/s speed=0.011x elapsed=0:02:31.51    \nframe=  103 fps=0.7 q=35.8 size=     256KiB time=00:00:01.68 bitrate=1246.0kbits/s speed=0.0111x elapsed=0:02:32.04    \nframe=  104 fps=0.7 q=36.8 size=     256KiB time=00:00:01.70 bitrate=1233.8kbits/s speed=0.0111x elapsed=0:02:32.57    \nframe=  104 fps=0.7 q=36.8 size=     256KiB time=00:00:01.70 bitrate=1233.8kbits/s speed=0.0111x elapsed=0:02:33.12    \nframe=  104 fps=0.7 q=36.8 size=     256KiB time=00:00:01.70 bitrate=1233.8kbits/s speed=0.0111x elapsed=0:02:33.66    \nframe=  104 fps=0.7 q=36.8 size=     256KiB time=00:00:01.70 bitrate=1233.8kbits/s speed=0.011x elapsed=0:02:34.20    \nframe=  104 fps=0.7 q=36.8 size=     256KiB time=00:00:01.70 bitrate=1233.8kbits/s speed=0.011x elapsed=0:02:34.75    \nframe=  104 fps=0.7 q=36.8 size=     256KiB time=00:00:01.70 bitrate=1233.8kbits/s speed=0.0109x elapsed=0:02:35.29    \nframe=  104 fps=0.7 q=36.8 size=     256KiB time=00:00:01.70 bitrate=1233.8kbits/s speed=0.0109x elapsed=0:02:35.85    \nframe=  104 fps=0.7 q=36.8 size=     256KiB time=00:00:01.70 bitrate=1233.8kbits/s speed=0.0109x elapsed=0:02:36.43    \nframe=  104 fps=0.7 q=36.8 size=     256KiB time=00:00:01.70 bitrate=1233.8kbits/s speed=0.0108x elapsed=0:02:36.95    \nframe=  104 fps=0.7 q=36.8 size=     256KiB time=00:00:01.70 bitrate=1233.8kbits/s speed=0.0108x elapsed=0:02:37.48    \nframe=  105 fps=0.7 q=36.8 size=     256KiB time=00:00:01.71 bitrate=1221.8kbits/s speed=0.0109x elapsed=0:02:37.98    \nframe=  105 fps=0.7 q=36.8 size=     256KiB time=00:00:01.71 bitrate=1221.8kbits/s speed=0.0108x elapsed=0:02:38.50    \nframe=  106 fps=0.7 q=37.2 size=     256KiB time=00:00:01.73 bitrate=1210.1kbits/s speed=0.0109x elapsed=0:02:39.03    \nframe=  106 fps=0.7 q=37.2 size=     256KiB time=00:00:01.73 bitrate=1210.1kbits/s speed=0.0109x elapsed=0:02:39.55    \nframe=  108 fps=0.7 q=34.8 size=     512KiB time=00:00:01.76 bitrate=2374.3kbits/s speed=0.011x elapsed=0:02:40.07    \nframe=  108 fps=0.7 q=34.8 size=     512KiB time=00:00:01.76 bitrate=2374.3kbits/s speed=0.011x elapsed=0:02:40.60    \nframe=  108 fps=0.7 q=34.8 size=     512KiB time=00:00:01.76 bitrate=2374.3kbits/s speed=0.011x elapsed=0:02:41.11    \nframe=  109 fps=0.7 q=37.0 size=     512KiB time=00:00:01.78 bitrate=2352.1kbits/s speed=0.011x elapsed=0:02:41.63    \nframe=  109 fps=0.7 q=37.0 size=     512KiB time=00:00:01.78 bitrate=2352.1kbits/s speed=0.011x elapsed=0:02:42.20    \nframe=  109 fps=0.7 q=37.0 size=     512KiB time=00:00:01.78 bitrate=2352.1kbits/s speed=0.011x elapsed=0:02:42.74    \nframe=  109 fps=0.7 q=37.0 size=     512KiB time=00:00:01.78 bitrate=2352.1kbits/s speed=0.0109x elapsed=0:02:43.28    \nframe=  110 fps=0.7 q=37.0 size=     512KiB time=00:00:01.80 bitrate=2330.4kbits/s speed=0.011x elapsed=0:02:43.81    \nframe=  111 fps=0.7 q=31.9 size=     512KiB time=00:00:01.81 bitrate=2309.0kbits/s speed=0.0111x elapsed=0:02:44.33    \nframe=  111 fps=0.7 q=31.9 size=     512KiB time=00:00:01.81 bitrate=2309.0kbits/s speed=0.011x elapsed=0:02:44.86    \nframe=  111 fps=0.7 q=31.9 size=     512KiB time=00:00:01.81 bitrate=2309.0kbits/s speed=0.011x elapsed=0:02:45.38    \nframe=  112 fps=0.7 q=34.7 size=     512KiB time=00:00:01.81 bitrate=2309.0kbits/s speed=0.0109x elapsed=0:02:45.91    \nframe=  112 fps=0.7 q=34.7 size=     512KiB time=00:00:01.83 bitrate=2288.0kbits/s speed=0.011x elapsed=0:02:46.44    \nframe=  113 fps=0.7 q=37.0 size=     512KiB time=00:00:01.85 bitrate=2267.4kbits/s speed=0.0111x elapsed=0:02:46.96    \nframe=  113 fps=0.7 q=37.0 size=     512KiB time=00:00:01.85 bitrate=2267.4kbits/s speed=0.011x elapsed=0:02:47.47    \nframe=  113 fps=0.7 q=37.0 size=     512KiB time=00:00:01.85 bitrate=2267.4kbits/s speed=0.011x elapsed=0:02:48.00    \nframe=  114 fps=0.7 q=36.9 size=     512KiB time=00:00:01.86 bitrate=2247.1kbits/s speed=0.0111x elapsed=0:02:48.53    \nframe=  114 fps=0.7 q=36.9 size=     512KiB time=00:00:01.86 bitrate=2247.1kbits/s speed=0.011x elapsed=0:02:49.07    \nframe=  114 fps=0.7 q=36.9 size=     512KiB time=00:00:01.86 bitrate=2247.1kbits/s speed=0.011x elapsed=0:02:49.60    \nframe=  114 fps=0.7 q=36.9 size=     512KiB time=00:00:01.86 bitrate=2247.1kbits/s speed=0.011x elapsed=0:02:50.12    \nframe=  114 fps=0.7 q=36.9 size=     512KiB time=00:00:01.86 bitrate=2247.1kbits/s speed=0.0109x elapsed=0:02:50.64    \nframe=  114 fps=0.7 q=36.9 size=     512KiB time=00:00:01.86 bitrate=2247.1kbits/s speed=0.0109x elapsed=0:02:51.18    \nframe=  115 fps=0.7 q=37.0 size=     512KiB time=00:00:01.88 bitrate=2227.3kbits/s speed=0.011x elapsed=0:02:51.70    \nframe=  116 fps=0.7 q=31.9 size=     512KiB time=00:00:01.90 bitrate=2207.7kbits/s speed=0.011x elapsed=0:02:52.22    \nframe=  116 fps=0.7 q=31.9 size=     512KiB time=00:00:01.90 bitrate=2207.7kbits/s speed=0.011x elapsed=0:02:52.77    \nframe=  116 fps=0.7 q=31.9 size=     512KiB time=00:00:01.90 bitrate=2207.7kbits/s speed=0.011x elapsed=0:02:53.30    \nframe=  116 fps=0.7 q=31.9 size=     512KiB time=00:00:01.90 bitrate=2207.7kbits/s speed=0.0109x elapsed=0:02:53.81    \nframe=  116 fps=0.7 q=31.9 size=     512KiB time=00:00:01.90 bitrate=2207.7kbits/s speed=0.0109x elapsed=0:02:54.33    \nframe=  116 fps=0.7 q=31.9 size=     512KiB time=00:00:01.90 bitrate=2207.7kbits/s speed=0.0109x elapsed=0:02:54.85    \nframe=  118 fps=0.7 q=36.9 size=     512KiB time=00:00:01.93 bitrate=2169.7kbits/s speed=0.011x elapsed=0:02:55.38    \nframe=  118 fps=0.7 q=36.9 size=     512KiB time=00:00:01.93 bitrate=2169.7kbits/s speed=0.011x elapsed=0:02:55.90    \nframe=  118 fps=0.7 q=36.9 size=     512KiB time=00:00:01.93 bitrate=2169.7kbits/s speed=0.011x elapsed=0:02:56.43    \nframe=  118 fps=0.7 q=36.9 size=     512KiB time=00:00:01.93 bitrate=2169.7kbits/s speed=0.0109x elapsed=0:02:56.94    \nframe=  118 fps=0.7 q=36.9 size=     512KiB time=00:00:01.93 bitrate=2169.7kbits/s speed=0.0109x elapsed=0:02:57.45    \nframe=  118 fps=0.7 q=36.9 size=     512KiB time=00:00:01.93 bitrate=2169.7kbits/s speed=0.0109x elapsed=0:02:57.98    \nframe=  118 fps=0.7 q=36.9 size=     512KiB time=00:00:01.93 bitrate=2169.7kbits/s speed=0.0108x elapsed=0:02:58.53    \nframe=  119 fps=0.7 q=37.0 size=     512KiB time=00:00:01.95 bitrate=2151.1kbits/s speed=0.0109x elapsed=0:02:59.05    \nframe=  119 fps=0.7 q=37.0 size=     512KiB time=00:00:01.95 bitrate=2151.1kbits/s speed=0.0109x elapsed=0:02:59.59    \nframe=  120 fps=0.7 q=36.9 size=     512KiB time=00:00:01.96 bitrate=2132.9kbits/s speed=0.0109x elapsed=0:03:00.12    \nframe=  120 fps=0.7 q=36.9 size=     512KiB time=00:00:01.96 bitrate=2132.9kbits/s speed=0.0109x elapsed=0:03:00.63    \nframe=  120 fps=0.7 q=36.9 size=     512KiB time=00:00:01.96 bitrate=2132.9kbits/s speed=0.0109x elapsed=0:03:01.17    \nframe=  121 fps=0.7 q=31.8 size=     512KiB time=00:00:01.98 bitrate=2115.0kbits/s speed=0.0109x elapsed=0:03:01.69    \nframe=  122 fps=0.7 q=33.1 size=     512KiB time=00:00:02.00 bitrate=2097.3kbits/s speed=0.011x elapsed=0:03:02.23    \nframe=  123 fps=0.7 q=36.9 size=     512KiB time=00:00:02.01 bitrate=2080.0kbits/s speed=0.011x elapsed=0:03:02.76    \nframe=  123 fps=0.7 q=36.9 size=     512KiB time=00:00:02.01 bitrate=2080.0kbits/s speed=0.011x elapsed=0:03:03.29    \nframe=  123 fps=0.7 q=36.9 size=     512KiB time=00:00:02.01 bitrate=2080.0kbits/s speed=0.011x elapsed=0:03:03.82    \nframe=  124 fps=0.7 q=36.8 size=     512KiB time=00:00:02.03 bitrate=2062.9kbits/s speed=0.011x elapsed=0:03:04.38    \nframe=  124 fps=0.7 q=36.8 size=     512KiB time=00:00:02.03 bitrate=2062.9kbits/s speed=0.011x elapsed=0:03:04.91    \nframe=  124 fps=0.7 q=36.8 size=     512KiB time=00:00:02.03 bitrate=2062.9kbits/s speed=0.011x elapsed=0:03:05.44    \nframe=  124 fps=0.7 q=36.8 size=     512KiB time=00:00:02.03 bitrate=2062.9kbits/s speed=0.0109x elapsed=0:03:05.96    \nframe=  126 fps=0.7 q=31.8 size=     512KiB time=00:00:02.06 bitrate=2029.7kbits/s speed=0.0111x elapsed=0:03:06.50    \nframe=  126 fps=0.7 q=31.8 size=     512KiB time=00:00:02.06 bitrate=2029.7kbits/s speed=0.011x elapsed=0:03:07.04    \nframe=  127 fps=0.7 q=35.4 size=     512KiB time=00:00:02.08 bitrate=2013.4kbits/s speed=0.0111x elapsed=0:03:07.58    \nframe=  127 fps=0.7 q=35.4 size=     512KiB time=00:00:02.08 bitrate=2013.4kbits/s speed=0.0111x elapsed=0:03:08.11    \nframe=  128 fps=0.7 q=36.7 size=     512KiB time=00:00:02.10 bitrate=1997.5kbits/s speed=0.0111x elapsed=0:03:08.64    \nframe=  129 fps=0.7 q=36.8 size=     512KiB time=00:00:02.11 bitrate=1981.7kbits/s speed=0.0112x elapsed=0:03:09.17    \nframe=  129 fps=0.7 q=36.8 size=     512KiB time=00:00:02.11 bitrate=1981.7kbits/s speed=0.0112x elapsed=0:03:09.69    \nframe=  129 fps=0.7 q=36.8 size=     512KiB time=00:00:02.11 bitrate=1981.7kbits/s speed=0.0111x elapsed=0:03:10.25    \nframe=  129 fps=0.7 q=36.8 size=     512KiB time=00:00:02.11 bitrate=1981.7kbits/s speed=0.0111x elapsed=0:03:10.82    \nframe=  129 fps=0.7 q=36.8 size=     512KiB time=00:00:02.11 bitrate=1981.7kbits/s speed=0.0111x elapsed=0:03:11.35    \nframe=  129 fps=0.7 q=36.8 size=     512KiB time=00:00:02.11 bitrate=1981.7kbits/s speed=0.011x elapsed=0:03:11.94    \nframe=  129 fps=0.7 q=36.8 size=     512KiB time=00:00:02.11 bitrate=1981.7kbits/s speed=0.011x elapsed=0:03:12.50    \nframe=  130 fps=0.7 q=36.9 size=     512KiB time=00:00:02.13 bitrate=1966.2kbits/s speed=0.0111x elapsed=0:03:13.03    \nframe=  130 fps=0.7 q=36.9 size=     512KiB time=00:00:02.13 bitrate=1966.2kbits/s speed=0.011x elapsed=0:03:13.58    \nframe=  130 fps=0.7 q=36.9 size=     512KiB time=00:00:02.13 bitrate=1966.2kbits/s speed=0.011x elapsed=0:03:14.12    \nframe=  130 fps=0.7 q=36.9 size=     512KiB time=00:00:02.13 bitrate=1966.2kbits/s speed=0.011x elapsed=0:03:14.64    \nframe=  130 fps=0.7 q=36.9 size=     512KiB time=00:00:02.13 bitrate=1966.2kbits/s speed=0.0109x elapsed=0:03:15.22    \nframe=  130 fps=0.7 q=36.9 size=     512KiB time=00:00:02.13 bitrate=1966.2kbits/s speed=0.0109x elapsed=0:03:15.89    \nframe=  130 fps=0.7 q=36.9 size=     512KiB time=00:00:02.13 bitrate=1966.2kbits/s speed=0.0109x elapsed=0:03:16.48    \nframe=  130 fps=0.7 q=36.9 size=     512KiB time=00:00:02.13 bitrate=1966.2kbits/s speed=0.0108x elapsed=0:03:17.11    \nframe=  130 fps=0.7 q=36.9 size=     512KiB time=00:00:02.13 bitrate=1966.2kbits/s speed=0.0108x elapsed=0:03:17.72    \nframe=  131 fps=0.7 q=31.8 size=     512KiB time=00:00:02.15 bitrate=1951.0kbits/s speed=0.0108x elapsed=0:03:18.32    \nframe=  131 fps=0.7 q=31.8 size=     512KiB time=00:00:02.15 bitrate=1951.0kbits/s speed=0.0108x elapsed=0:03:18.91    \nframe=  131 fps=0.7 q=31.8 size=     512KiB time=00:00:02.15 bitrate=1951.0kbits/s speed=0.0108x elapsed=0:03:19.48    \nframe=  131 fps=0.7 q=31.8 size=     512KiB time=00:00:02.15 bitrate=1951.0kbits/s speed=0.0107x elapsed=0:03:20.12    \nframe=  131 fps=0.7 q=31.8 size=     512KiB time=00:00:02.15 bitrate=1951.0kbits/s speed=0.0107x elapsed=0:03:20.70    \nframe=  131 fps=0.7 q=31.8 size=     512KiB time=00:00:02.15 bitrate=1951.0kbits/s speed=0.0107x elapsed=0:03:21.33    \nframe=  131 fps=0.6 q=31.8 size=     512KiB time=00:00:02.15 bitrate=1951.0kbits/s speed=0.0106x elapsed=0:03:21.91    \nframe=  131 fps=0.6 q=31.8 size=     512KiB time=00:00:02.15 bitrate=1951.0kbits/s speed=0.0106x elapsed=0:03:22.53    \nframe=  131 fps=0.6 q=31.8 size=     512KiB time=00:00:02.15 bitrate=1951.0kbits/s speed=0.0106x elapsed=0:03:23.14    \nframe=  131 fps=0.6 q=31.8 size=     512KiB time=00:00:02.15 bitrate=1951.0kbits/s speed=0.0106x elapsed=0:03:23.67    \nframe=  131 fps=0.6 q=31.8 size=     512KiB time=00:00:02.15 bitrate=1951.0kbits/s speed=0.0105x elapsed=0:03:24.23    \nframe=  131 fps=0.6 q=31.8 size=     512KiB time=00:00:02.15 bitrate=1951.0kbits/s speed=0.0105x elapsed=0:03:24.79    \nframe=  132 fps=0.6 q=35.6 size=     512KiB time=00:00:02.16 bitrate=1936.0kbits/s speed=0.0106x elapsed=0:03:25.35    \nframe=  132 fps=0.6 q=35.6 size=     512KiB time=00:00:02.16 bitrate=1936.0kbits/s speed=0.0105x elapsed=0:03:25.86    \nframe=  132 fps=0.6 q=35.6 size=     512KiB time=00:00:02.16 bitrate=1936.0kbits/s speed=0.0105x elapsed=0:03:26.42    \nframe=  133 fps=0.6 q=36.7 size=     512KiB time=00:00:02.18 bitrate=1921.2kbits/s speed=0.0105x elapsed=0:03:27.04    \nframe=  133 fps=0.6 q=36.7 size=     512KiB time=00:00:02.18 bitrate=1921.2kbits/s speed=0.0105x elapsed=0:03:27.56    \nframe=  133 fps=0.6 q=36.7 size=     512KiB time=00:00:02.18 bitrate=1921.2kbits/s speed=0.0105x elapsed=0:03:28.09    \nframe=  133 fps=0.6 q=36.7 size=     512KiB time=00:00:02.18 bitrate=1921.2kbits/s speed=0.0105x elapsed=0:03:28.59    \nframe=  133 fps=0.6 q=36.7 size=     512KiB time=00:00:02.18 bitrate=1921.2kbits/s speed=0.0104x elapsed=0:03:29.15    \nframe=  134 fps=0.6 q=36.9 size=     512KiB time=00:00:02.20 bitrate=1906.7kbits/s speed=0.0105x elapsed=0:03:29.67    \nframe=  135 fps=0.6 q=36.5 size=     512KiB time=00:00:02.21 bitrate=1892.3kbits/s speed=0.0105x elapsed=0:03:30.21    \nframe=  135 fps=0.6 q=36.5 size=     512KiB time=00:00:02.21 bitrate=1892.3kbits/s speed=0.0105x elapsed=0:03:30.75    \nframe=  135 fps=0.6 q=36.5 size=     512KiB time=00:00:02.21 bitrate=1892.3kbits/s speed=0.0105x elapsed=0:03:31.30    \nframe=  135 fps=0.6 q=36.5 size=     512KiB time=00:00:02.21 bitrate=1892.3kbits/s speed=0.0105x elapsed=0:03:31.83    \nframe=  135 fps=0.6 q=36.5 size=     512KiB time=00:00:02.21 bitrate=1892.3kbits/s speed=0.0104x elapsed=0:03:32.34    \nframe=  135 fps=0.6 q=36.5 size=     512KiB time=00:00:02.21 bitrate=1892.3kbits/s speed=0.0104x elapsed=0:03:32.86    \nframe=  135 fps=0.6 q=36.5 size=     512KiB time=00:00:02.21 bitrate=1892.3kbits/s speed=0.0104x elapsed=0:03:33.39    \nframe=  136 fps=0.6 q=31.8 size=     512KiB time=00:00:02.23 bitrate=1878.2kbits/s speed=0.0104x elapsed=0:03:33.91    \nframe=  136 fps=0.6 q=31.8 size=     512KiB time=00:00:02.23 bitrate=1878.2kbits/s speed=0.0104x elapsed=0:03:34.43    \nframe=  136 fps=0.6 q=31.8 size=     512KiB time=00:00:02.23 bitrate=1878.2kbits/s speed=0.0104x elapsed=0:03:34.98    \nframe=  137 fps=0.6 q=35.4 size=     512KiB time=00:00:02.25 bitrate=1864.3kbits/s speed=0.0104x elapsed=0:03:35.52    \nframe=  137 fps=0.6 q=35.4 size=     512KiB time=00:00:02.25 bitrate=1864.3kbits/s speed=0.0104x elapsed=0:03:36.05    \nframe=  137 fps=0.6 q=35.4 size=     512KiB time=00:00:02.25 bitrate=1864.3kbits/s speed=0.0104x elapsed=0:03:36.59    \nframe=  138 fps=0.6 q=36.4 size=     512KiB time=00:00:02.26 bitrate=1850.6kbits/s speed=0.0104x elapsed=0:03:37.12    \nframe=  138 fps=0.6 q=36.4 size=     512KiB time=00:00:02.26 bitrate=1850.6kbits/s speed=0.0104x elapsed=0:03:37.64    \nframe=  138 fps=0.6 q=36.4 size=     512KiB time=00:00:02.26 bitrate=1850.6kbits/s speed=0.0104x elapsed=0:03:38.18    \nframe=  138 fps=0.6 q=36.4 size=     512KiB time=00:00:02.26 bitrate=1850.6kbits/s speed=0.0104x elapsed=0:03:38.72    \nframe=  138 fps=0.6 q=36.4 size=     512KiB time=00:00:02.26 bitrate=1850.6kbits/s speed=0.0103x elapsed=0:03:39.26    \nframe=  139 fps=0.6 q=36.3 size=     512KiB time=00:00:02.28 bitrate=1837.1kbits/s speed=0.0104x elapsed=0:03:39.79    \nframe=  139 fps=0.6 q=36.3 size=     512KiB time=00:00:02.28 bitrate=1837.1kbits/s speed=0.0104x elapsed=0:03:40.30    \nframe=  139 fps=0.6 q=36.3 size=     512KiB time=00:00:02.28 bitrate=1837.1kbits/s speed=0.0103x elapsed=0:03:40.81    \nframe=  139 fps=0.6 q=36.3 size=     512KiB time=00:00:02.28 bitrate=1837.1kbits/s speed=0.0103x elapsed=0:03:41.35    \nframe=  139 fps=0.6 q=36.3 size=     512KiB time=00:00:02.28 bitrate=1837.1kbits/s speed=0.0103x elapsed=0:03:41.90    \nframe=  140 fps=0.6 q=36.5 size=     512KiB time=00:00:02.30 bitrate=1823.8kbits/s speed=0.0103x elapsed=0:03:42.41    \nframe=  141 fps=0.6 q=31.8 size=     512KiB time=00:00:02.31 bitrate=1810.6kbits/s speed=0.0104x elapsed=0:03:42.94    \nframe=  141 fps=0.6 q=31.8 size=     512KiB time=00:00:02.31 bitrate=1810.6kbits/s speed=0.0104x elapsed=0:03:43.49    \nframe=  141 fps=0.6 q=31.8 size=     512KiB time=00:00:02.31 bitrate=1810.6kbits/s speed=0.0103x elapsed=0:03:44.04    \nframe=  141 fps=0.6 q=31.8 size=     512KiB time=00:00:02.31 bitrate=1810.6kbits/s speed=0.0103x elapsed=0:03:44.55    \nframe=  142 fps=0.6 q=35.3 size=     512KiB time=00:00:02.33 bitrate=1797.7kbits/s speed=0.0104x elapsed=0:03:45.10    \nframe=  143 fps=0.6 q=36.8 size=     512KiB time=00:00:02.33 bitrate=1797.7kbits/s speed=0.0103x elapsed=0:03:45.62    \nframe=  143 fps=0.6 q=36.8 size=     512KiB time=00:00:02.35 bitrate=1785.0kbits/s speed=0.0104x elapsed=0:03:46.15    \nframe=  143 fps=0.6 q=36.8 size=     512KiB time=00:00:02.35 bitrate=1785.0kbits/s speed=0.0104x elapsed=0:03:46.66    \nframe=  143 fps=0.6 q=36.8 size=     512KiB time=00:00:02.35 bitrate=1785.0kbits/s speed=0.0103x elapsed=0:03:47.18    \nframe=  143 fps=0.6 q=36.8 size=     512KiB time=00:00:02.35 bitrate=1785.0kbits/s speed=0.0103x elapsed=0:03:47.70    \nframe=  144 fps=0.6 q=36.5 size=     512KiB time=00:00:02.36 bitrate=1772.4kbits/s speed=0.0104x elapsed=0:03:48.22    \nframe=  144 fps=0.6 q=36.5 size=     512KiB time=00:00:02.36 bitrate=1772.4kbits/s speed=0.0103x elapsed=0:03:48.77    \nframe=  144 fps=0.6 q=36.5 size=     512KiB time=00:00:02.36 bitrate=1772.4kbits/s speed=0.0103x elapsed=0:03:49.28    \nframe=  144 fps=0.6 q=36.5 size=     512KiB time=00:00:02.36 bitrate=1772.4kbits/s speed=0.0103x elapsed=0:03:49.80    \nframe=  145 fps=0.6 q=37.0 size=     512KiB time=00:00:02.38 bitrate=1760.0kbits/s speed=0.0103x elapsed=0:03:50.31    \nframe=  147 fps=0.6 q=35.3 size=     512KiB time=00:00:02.41 bitrate=1735.7kbits/s speed=0.0105x elapsed=0:03:50.84    \nframe=  147 fps=0.6 q=35.3 size=     512KiB time=00:00:02.41 bitrate=1735.7kbits/s speed=0.0104x elapsed=0:03:51.37    \nframe=  147 fps=0.6 q=35.3 size=     512KiB time=00:00:02.41 bitrate=1735.7kbits/s speed=0.0104x elapsed=0:03:51.88    \nframe=  147 fps=0.6 q=35.3 size=     512KiB time=00:00:02.41 bitrate=1735.7kbits/s speed=0.0104x elapsed=0:03:52.41    \nframe=  148 fps=0.6 q=36.9 size=     512KiB time=00:00:02.43 bitrate=1723.8kbits/s speed=0.0104x elapsed=0:03:52.95    \nframe=  148 fps=0.6 q=36.9 size=     512KiB time=00:00:02.43 bitrate=1723.8kbits/s speed=0.0104x elapsed=0:03:53.46    \nframe=  149 fps=0.6 q=36.4 size=     512KiB time=00:00:02.45 bitrate=1712.1kbits/s speed=0.0105x elapsed=0:03:53.97    \nframe=  149 fps=0.6 q=36.4 size=     512KiB time=00:00:02.45 bitrate=1712.1kbits/s speed=0.0104x elapsed=0:03:54.48    \nframe=  149 fps=0.6 q=36.4 size=     512KiB time=00:00:02.45 bitrate=1712.1kbits/s speed=0.0104x elapsed=0:03:55.01    \nframe=  149 fps=0.6 q=36.4 size=     512KiB time=00:00:02.45 bitrate=1712.1kbits/s speed=0.0104x elapsed=0:03:55.56    \nframe=  149 fps=0.6 q=36.4 size=     512KiB time=00:00:02.45 bitrate=1712.1kbits/s speed=0.0104x elapsed=0:03:56.19    \nframe=  149 fps=0.6 q=36.4 size=     512KiB time=00:00:02.45 bitrate=1712.1kbits/s speed=0.0103x elapsed=0:03:56.71    \nframe=  149 fps=0.6 q=36.4 size=     512KiB time=00:00:02.45 bitrate=1712.1kbits/s speed=0.0103x elapsed=0:03:57.35    \nframe=  149 fps=0.6 q=36.4 size=     512KiB time=00:00:02.45 bitrate=1712.1kbits/s speed=0.0103x elapsed=0:03:57.97    \nframe=  149 fps=0.6 q=36.4 size=     512KiB time=00:00:02.45 bitrate=1712.1kbits/s speed=0.0103x elapsed=0:03:58.52    \nframe=  150 fps=0.6 q=37.3 size=     512KiB time=00:00:02.46 bitrate=1700.5kbits/s speed=0.0103x elapsed=0:03:59.03    \nframe=  150 fps=0.6 q=37.3 size=     512KiB time=00:00:02.46 bitrate=1700.5kbits/s speed=0.0103x elapsed=0:03:59.58    \nframe=  151 fps=0.6 q=31.8 size=     512KiB time=00:00:02.48 bitrate=1689.1kbits/s speed=0.0103x elapsed=0:04:00.12    \nframe=  151 fps=0.6 q=31.8 size=     512KiB time=00:00:02.48 bitrate=1689.1kbits/s speed=0.0103x elapsed=0:04:00.68    \nframe=  151 fps=0.6 q=31.8 size=     512KiB time=00:00:02.48 bitrate=1689.1kbits/s speed=0.0103x elapsed=0:04:01.27    \nframe=  152 fps=0.6 q=35.4 size=     512KiB time=00:00:02.50 bitrate=1677.9kbits/s speed=0.0103x elapsed=0:04:01.81    \nframe=  152 fps=0.6 q=35.4 size=     512KiB time=00:00:02.50 bitrate=1677.9kbits/s speed=0.0103x elapsed=0:04:02.38    \nframe=  152 fps=0.6 q=35.4 size=     512KiB time=00:00:02.50 bitrate=1677.9kbits/s speed=0.0103x elapsed=0:04:02.91    \nframe=  152 fps=0.6 q=35.4 size=     512KiB time=00:00:02.50 bitrate=1677.9kbits/s speed=0.0103x elapsed=0:04:03.45    \nframe=  152 fps=0.6 q=35.4 size=     512KiB time=00:00:02.50 bitrate=1677.9kbits/s speed=0.0102x elapsed=0:04:03.98    \nframe=  153 fps=0.6 q=36.8 size=     512KiB time=00:00:02.51 bitrate=1666.8kbits/s speed=0.0103x elapsed=0:04:04.54    \nframe=  153 fps=0.6 q=36.8 size=     512KiB time=00:00:02.51 bitrate=1666.8kbits/s speed=0.0103x elapsed=0:04:05.07    \nframe=  153 fps=0.6 q=36.8 size=     512KiB time=00:00:02.51 bitrate=1666.8kbits/s speed=0.0102x elapsed=0:04:05.60    \nframe=  153 fps=0.6 q=36.8 size=     512KiB time=00:00:02.51 bitrate=1666.8kbits/s speed=0.0102x elapsed=0:04:06.16    \nframe=  153 fps=0.6 q=36.8 size=     512KiB time=00:00:02.51 bitrate=1666.8kbits/s speed=0.0102x elapsed=0:04:06.69    \nframe=  154 fps=0.6 q=36.7 size=     512KiB time=00:00:02.53 bitrate=1655.8kbits/s speed=0.0102x elapsed=0:04:07.25    \nframe=  154 fps=0.6 q=36.7 size=     512KiB time=00:00:02.53 bitrate=1655.8kbits/s speed=0.0102x elapsed=0:04:07.85    \nframe=  154 fps=0.6 q=36.7 size=     512KiB time=00:00:02.53 bitrate=1655.8kbits/s speed=0.0102x elapsed=0:04:08.40    \nframe=  154 fps=0.6 q=36.7 size=     512KiB time=00:00:02.53 bitrate=1655.8kbits/s speed=0.0102x elapsed=0:04:08.97    \nframe=  154 fps=0.6 q=36.7 size=     512KiB time=00:00:02.53 bitrate=1655.8kbits/s speed=0.0102x elapsed=0:04:09.53    \nframe=  154 fps=0.6 q=36.7 size=     512KiB time=00:00:02.53 bitrate=1655.8kbits/s speed=0.0101x elapsed=0:04:10.10    \nframe=  154 fps=0.6 q=36.7 size=     512KiB time=00:00:02.53 bitrate=1655.8kbits/s speed=0.0101x elapsed=0:04:10.68    \nframe=  154 fps=0.6 q=36.7 size=     512KiB time=00:00:02.53 bitrate=1655.8kbits/s speed=0.0101x elapsed=0:04:11.22    \nframe=  154 fps=0.6 q=36.7 size=     512KiB time=00:00:02.53 bitrate=1655.8kbits/s speed=0.0101x elapsed=0:04:11.82    \nframe=  155 fps=0.6 q=37.2 size=     512KiB time=00:00:02.53 bitrate=1655.8kbits/s speed=0.01x elapsed=0:04:12.33    \nframe=  155 fps=0.6 q=37.2 size=     512KiB time=00:00:02.55 bitrate=1645.0kbits/s speed=0.0101x elapsed=0:04:12.85    \nframe=  155 fps=0.6 q=37.2 size=     512KiB time=00:00:02.55 bitrate=1645.0kbits/s speed=0.0101x elapsed=0:04:13.39    \nframe=  156 fps=0.6 q=31.4 size=     512KiB time=00:00:02.56 bitrate=1634.3kbits/s speed=0.0101x elapsed=0:04:13.99    \nframe=  156 fps=0.6 q=31.4 size=     512KiB time=00:00:02.56 bitrate=1634.3kbits/s speed=0.0101x elapsed=0:04:14.57    \nframe=  156 fps=0.6 q=31.4 size=     512KiB time=00:00:02.56 bitrate=1634.3kbits/s speed=0.0101x elapsed=0:04:15.12    \nframe=  156 fps=0.6 q=31.4 size=     512KiB time=00:00:02.56 bitrate=1634.3kbits/s speed=0.01x elapsed=0:04:15.64    \nframe=  156 fps=0.6 q=31.4 size=     512KiB time=00:00:02.56 bitrate=1634.3kbits/s speed=0.01x elapsed=0:04:16.22    \nframe=  156 fps=0.6 q=31.4 size=     512KiB time=00:00:02.56 bitrate=1634.3kbits/s speed=0.00999x elapsed=0:04:16.80    \nframe=  156 fps=0.6 q=31.4 size=     512KiB time=00:00:02.56 bitrate=1634.3kbits/s speed=0.00997x elapsed=0:04:17.35    \nframe=  157 fps=0.6 q=35.3 size=     768KiB time=00:00:02.58 bitrate=2435.5kbits/s speed=0.01x elapsed=0:04:17.96    \nframe=  157 fps=0.6 q=35.3 size=     768KiB time=00:00:02.58 bitrate=2435.5kbits/s speed=0.00999x elapsed=0:04:18.51    \nframe=  157 fps=0.6 q=35.3 size=     768KiB time=00:00:02.58 bitrate=2435.5kbits/s speed=0.00997x elapsed=0:04:19.08    \nframe=  157 fps=0.6 q=35.3 size=     768KiB time=00:00:02.58 bitrate=2435.5kbits/s speed=0.00995x elapsed=0:04:19.63    \nframe=  157 fps=0.6 q=35.3 size=     768KiB time=00:00:02.58 bitrate=2435.5kbits/s speed=0.00993x elapsed=0:04:20.16    \nframe=  157 fps=0.6 q=35.3 size=     768KiB time=00:00:02.58 bitrate=2435.5kbits/s speed=0.00991x elapsed=0:04:20.74    \nframe=  157 fps=0.6 q=35.3 size=     768KiB time=00:00:02.58 bitrate=2435.5kbits/s speed=0.00989x elapsed=0:04:21.30    \nframe=  158 fps=0.6 q=37.1 size=     768KiB time=00:00:02.60 bitrate=2419.9kbits/s speed=0.00993x elapsed=0:04:21.87    \nframe=  159 fps=0.6 q=36.9 size=     768KiB time=00:00:02.61 bitrate=2404.5kbits/s speed=0.00997x elapsed=0:04:22.43    \nframe=  159 fps=0.6 q=36.9 size=     768KiB time=00:00:02.61 bitrate=2404.5kbits/s speed=0.00995x elapsed=0:04:22.97    \nframe=  159 fps=0.6 q=36.9 size=     768KiB time=00:00:02.61 bitrate=2404.5kbits/s speed=0.00993x elapsed=0:04:23.56    \nframe=  160 fps=0.6 q=37.2 size=     768KiB time=00:00:02.63 bitrate=2389.3kbits/s speed=0.00997x elapsed=0:04:24.11    \nframe=  160 fps=0.6 q=37.2 size=     768KiB time=00:00:02.63 bitrate=2389.3kbits/s speed=0.00995x elapsed=0:04:24.65    \nframe=  160 fps=0.6 q=37.2 size=     768KiB time=00:00:02.63 bitrate=2389.3kbits/s speed=0.00993x elapsed=0:04:25.19    \nframe=  160 fps=0.6 q=37.2 size=     768KiB time=00:00:02.63 bitrate=2389.3kbits/s speed=0.00991x elapsed=0:04:25.76    \nframe=  160 fps=0.6 q=37.2 size=     768KiB time=00:00:02.63 bitrate=2389.3kbits/s speed=0.00989x elapsed=0:04:26.31    \nframe=  160 fps=0.6 q=37.2 size=     768KiB time=00:00:02.63 bitrate=2389.3kbits/s speed=0.00987x elapsed=0:04:26.86    \nframe=  160 fps=0.6 q=37.2 size=     768KiB time=00:00:02.63 bitrate=2389.3kbits/s speed=0.00985x elapsed=0:04:27.44    \nframe=  160 fps=0.6 q=37.2 size=     768KiB time=00:00:02.63 bitrate=2389.3kbits/s speed=0.00982x elapsed=0:04:28.05    \nframe=  160 fps=0.6 q=37.2 size=     768KiB time=00:00:02.63 bitrate=2389.3kbits/s speed=0.0098x elapsed=0:04:28.61    \nframe=  160 fps=0.6 q=37.2 size=     768KiB time=00:00:02.63 bitrate=2389.3kbits/s speed=0.00978x elapsed=0:04:29.16    \nframe=  160 fps=0.6 q=37.2 size=     768KiB time=00:00:02.63 bitrate=2389.3kbits/s speed=0.00976x elapsed=0:04:29.72    \nframe=  160 fps=0.6 q=37.2 size=     768KiB time=00:00:02.63 bitrate=2389.3kbits/s speed=0.00974x elapsed=0:04:30.25    \nframe=  160 fps=0.6 q=37.2 size=     768KiB time=00:00:02.63 bitrate=2389.3kbits/s speed=0.00972x elapsed=0:04:30.82    \nframe=  160 fps=0.6 q=37.2 size=     768KiB time=00:00:02.63 bitrate=2389.3kbits/s speed=0.0097x elapsed=0:04:31.37    \nframe=  160 fps=0.6 q=37.2 size=     768KiB time=00:00:02.63 bitrate=2389.3kbits/s speed=0.00968x elapsed=0:04:31.91    \nframe=  160 fps=0.6 q=37.2 size=     768KiB time=00:00:02.63 bitrate=2389.3kbits/s speed=0.00967x elapsed=0:04:32.44    \nframe=  160 fps=0.6 q=37.2 size=     768KiB time=00:00:02.63 bitrate=2389.3kbits/s speed=0.00965x elapsed=0:04:32.97    \nframe=  160 fps=0.6 q=37.2 size=     768KiB time=00:00:02.63 bitrate=2389.3kbits/s speed=0.00963x elapsed=0:04:33.51    \nframe=  160 fps=0.6 q=37.2 size=     768KiB time=00:00:02.63 bitrate=2389.3kbits/s speed=0.00961x elapsed=0:04:34.04    \nframe=  161 fps=0.6 q=31.7 size=     768KiB time=00:00:02.65 bitrate=2374.3kbits/s speed=0.00965x elapsed=0:04:34.64    \nframe=  161 fps=0.6 q=31.7 size=     768KiB time=00:00:02.65 bitrate=2374.3kbits/s speed=0.00963x elapsed=0:04:35.20    \nframe=  161 fps=0.6 q=31.7 size=     768KiB time=00:00:02.65 bitrate=2374.3kbits/s speed=0.00961x elapsed=0:04:35.79    \nframe=  161 fps=0.6 q=31.7 size=     768KiB time=00:00:02.65 bitrate=2374.3kbits/s speed=0.00959x elapsed=0:04:36.35    \nframe=  162 fps=0.6 q=35.3 size=     768KiB time=00:00:02.66 bitrate=2359.4kbits/s speed=0.00963x elapsed=0:04:36.89    \nframe=  163 fps=0.6 q=36.7 size=     768KiB time=00:00:02.66 bitrate=2359.4kbits/s speed=0.00961x elapsed=0:04:37.45    \nframe=  163 fps=0.6 q=36.7 size=     768KiB time=00:00:02.68 bitrate=2344.8kbits/s speed=0.00965x elapsed=0:04:38.00    \nframe=  163 fps=0.6 q=36.7 size=     768KiB time=00:00:02.68 bitrate=2344.8kbits/s speed=0.00963x elapsed=0:04:38.52    \nframe=  163 fps=0.6 q=36.7 size=     768KiB time=00:00:02.68 bitrate=2344.8kbits/s speed=0.00962x elapsed=0:04:39.04    \nframe=  163 fps=0.6 q=36.7 size=     768KiB time=00:00:02.68 bitrate=2344.8kbits/s speed=0.0096x elapsed=0:04:39.58    \nframe=  163 fps=0.6 q=36.7 size=     768KiB time=00:00:02.68 bitrate=2344.8kbits/s speed=0.00958x elapsed=0:04:40.13    \nframe=  163 fps=0.6 q=36.7 size=     768KiB time=00:00:02.68 bitrate=2344.8kbits/s speed=0.00956x elapsed=0:04:40.67    \nframe=  163 fps=0.6 q=36.7 size=     768KiB time=00:00:02.68 bitrate=2344.8kbits/s speed=0.00954x elapsed=0:04:41.21    \nframe=  163 fps=0.6 q=36.7 size=     768KiB time=00:00:02.68 bitrate=2344.8kbits/s speed=0.00952x elapsed=0:04:41.77    \nframe=  163 fps=0.6 q=36.7 size=     768KiB time=00:00:02.68 bitrate=2344.8kbits/s speed=0.00951x elapsed=0:04:42.30    \nframe=  163 fps=0.6 q=36.7 size=     768KiB time=00:00:02.68 bitrate=2344.8kbits/s speed=0.00949x elapsed=0:04:42.88    \nframe=  163 fps=0.6 q=36.7 size=     768KiB time=00:00:02.68 bitrate=2344.8kbits/s speed=0.00947x elapsed=0:04:43.46    \nframe=  163 fps=0.6 q=36.7 size=     768KiB time=00:00:02.68 bitrate=2344.8kbits/s speed=0.00945x elapsed=0:04:43.98    \nframe=  164 fps=0.6 q=36.7 size=     768KiB time=00:00:02.70 bitrate=2330.3kbits/s speed=0.00949x elapsed=0:04:44.50    \nframe=  164 fps=0.6 q=36.7 size=     768KiB time=00:00:02.70 bitrate=2330.3kbits/s speed=0.00947x elapsed=0:04:45.04    \nframe=  164 fps=0.6 q=36.7 size=     768KiB time=00:00:02.70 bitrate=2330.3kbits/s speed=0.00946x elapsed=0:04:45.55    \nframe=  164 fps=0.6 q=36.7 size=     768KiB time=00:00:02.70 bitrate=2330.3kbits/s speed=0.00944x elapsed=0:04:46.09    \nframe=  165 fps=0.6 q=37.0 size=     768KiB time=00:00:02.71 bitrate=2316.0kbits/s speed=0.00948x elapsed=0:04:46.64    \nframe=  165 fps=0.6 q=37.0 size=     768KiB time=00:00:02.71 bitrate=2316.0kbits/s speed=0.00946x elapsed=0:04:47.18    \nframe=  165 fps=0.6 q=37.0 size=     768KiB time=00:00:02.71 bitrate=2316.0kbits/s speed=0.00944x elapsed=0:04:47.74    \nframe=  165 fps=0.6 q=37.0 size=     768KiB time=00:00:02.71 bitrate=2316.0kbits/s speed=0.00942x elapsed=0:04:48.30    \nframe=  166 fps=0.6 q=31.3 size=     768KiB time=00:00:02.73 bitrate=2301.9kbits/s speed=0.00946x elapsed=0:04:48.84    \nframe=  166 fps=0.6 q=31.3 size=     768KiB time=00:00:02.73 bitrate=2301.9kbits/s speed=0.00945x elapsed=0:04:49.35    \nframe=  167 fps=0.6 q=35.3 size=     768KiB time=00:00:02.75 bitrate=2287.9kbits/s speed=0.00949x elapsed=0:04:49.88    \nframe=  168 fps=0.6 q=37.1 size=     768KiB time=00:00:02.76 bitrate=2274.1kbits/s speed=0.00953x elapsed=0:04:50.39    \nframe=  168 fps=0.6 q=37.1 size=     768KiB time=00:00:02.76 bitrate=2274.1kbits/s speed=0.00951x elapsed=0:04:50.91    \nframe=  168 fps=0.6 q=37.1 size=     768KiB time=00:00:02.76 bitrate=2274.1kbits/s speed=0.00949x elapsed=0:04:51.44    \nframe=  168 fps=0.6 q=37.1 size=     768KiB time=00:00:02.76 bitrate=2274.1kbits/s speed=0.00948x elapsed=0:04:51.96    \nframe=  168 fps=0.6 q=37.1 size=     768KiB time=00:00:02.76 bitrate=2274.1kbits/s speed=0.00946x elapsed=0:04:52.47    \nframe=  168 fps=0.6 q=37.1 size=     768KiB time=00:00:02.76 bitrate=2274.1kbits/s speed=0.00944x elapsed=0:04:52.99    \nframe=  168 fps=0.6 q=37.1 size=     768KiB time=00:00:02.76 bitrate=2274.1kbits/s speed=0.00943x elapsed=0:04:53.51    \nframe=  168 fps=0.6 q=37.1 size=     768KiB time=00:00:02.76 bitrate=2274.1kbits/s speed=0.00941x elapsed=0:04:54.03    \nframe=  169 fps=0.6 q=36.7 size=     768KiB time=00:00:02.78 bitrate=2260.5kbits/s speed=0.00945x elapsed=0:04:54.57    \nframe=  169 fps=0.6 q=36.7 size=     768KiB time=00:00:02.78 bitrate=2260.5kbits/s speed=0.00943x elapsed=0:04:55.09    \nframe=  170 fps=0.6 q=37.3 size=     768KiB time=00:00:02.80 bitrate=2247.1kbits/s speed=0.00947x elapsed=0:04:55.61    \nframe=  170 fps=0.6 q=37.3 size=     768KiB time=00:00:02.80 bitrate=2247.1kbits/s speed=0.00945x elapsed=0:04:56.16    \nframe=  170 fps=0.6 q=37.3 size=     768KiB time=00:00:02.80 bitrate=2247.1kbits/s speed=0.00944x elapsed=0:04:56.68    \nframe=  171 fps=0.6 q=31.5 size=     768KiB time=00:00:02.81 bitrate=2233.8kbits/s speed=0.00948x elapsed=0:04:57.21    \nframe=  172 fps=0.6 q=35.3 size=     768KiB time=00:00:02.83 bitrate=2220.6kbits/s speed=0.00952x elapsed=0:04:57.75    \nframe=  173 fps=0.6 q=36.8 size=     768KiB time=00:00:02.85 bitrate=2207.7kbits/s speed=0.00955x elapsed=0:04:58.30    \nframe=  173 fps=0.6 q=36.8 size=     768KiB time=00:00:02.85 bitrate=2207.7kbits/s speed=0.00954x elapsed=0:04:58.84    \nframe=  173 fps=0.6 q=36.8 size=     768KiB time=00:00:02.85 bitrate=2207.7kbits/s speed=0.00952x elapsed=0:04:59.37    \nframe=  173 fps=0.6 q=36.8 size=     768KiB time=00:00:02.85 bitrate=2207.7kbits/s speed=0.0095x elapsed=0:04:59.90    \nframe=  173 fps=0.6 q=36.8 size=     768KiB time=00:00:02.85 bitrate=2207.7kbits/s speed=0.00949x elapsed=0:05:00.42    \nframe=  173 fps=0.6 q=36.8 size=     768KiB time=00:00:02.85 bitrate=2207.7kbits/s speed=0.00947x elapsed=0:05:00.94    \nframe=  174 fps=0.6 q=36.7 size=     768KiB time=00:00:02.86 bitrate=2194.8kbits/s speed=0.00951x elapsed=0:05:01.45    \nframe=  174 fps=0.6 q=36.7 size=     768KiB time=00:00:02.86 bitrate=2194.8kbits/s speed=0.00949x elapsed=0:05:01.97    \nframe=  175 fps=0.6 q=37.2 size=     768KiB time=00:00:02.88 bitrate=2182.1kbits/s speed=0.00953x elapsed=0:05:02.51    \nframe=  176 fps=0.6 q=31.5 size=     768KiB time=00:00:02.90 bitrate=2169.6kbits/s speed=0.00957x elapsed=0:05:03.04    \nframe=  176 fps=0.6 q=31.5 size=     768KiB time=00:00:02.90 bitrate=2169.6kbits/s speed=0.00955x elapsed=0:05:03.58    \nframe=  177 fps=0.6 q=35.3 size=     768KiB time=00:00:02.91 bitrate=2157.2kbits/s speed=0.00959x elapsed=0:05:04.09    \nframe=  177 fps=0.6 q=35.3 size=     768KiB time=00:00:02.91 bitrate=2157.2kbits/s speed=0.00957x elapsed=0:05:04.62    \nframe=  178 fps=0.6 q=36.9 size=     768KiB time=00:00:02.93 bitrate=2144.9kbits/s speed=0.00961x elapsed=0:05:05.15    \nframe=  178 fps=0.6 q=36.9 size=     768KiB time=00:00:02.93 bitrate=2144.9kbits/s speed=0.0096x elapsed=0:05:05.68    \nframe=  178 fps=0.6 q=36.9 size=     768KiB time=00:00:02.93 bitrate=2144.9kbits/s speed=0.00958x elapsed=0:05:06.19    \nframe=  179 fps=0.6 q=36.8 size=     768KiB time=00:00:02.95 bitrate=2132.8kbits/s speed=0.00962x elapsed=0:05:06.74    \nframe=  179 fps=0.6 q=36.8 size=     768KiB time=00:00:02.95 bitrate=2132.8kbits/s speed=0.0096x elapsed=0:05:07.28    \nframe=  179 fps=0.6 q=36.8 size=     768KiB time=00:00:02.95 bitrate=2132.8kbits/s speed=0.00958x elapsed=0:05:07.78    \nframe=  180 fps=0.6 q=37.1 size=     768KiB time=00:00:02.96 bitrate=2120.8kbits/s speed=0.00962x elapsed=0:05:08.30    \nframe=  180 fps=0.6 q=37.1 size=     768KiB time=00:00:02.96 bitrate=2120.8kbits/s speed=0.00961x elapsed=0:05:08.82    \nframe=  180 fps=0.6 q=37.1 size=     768KiB time=00:00:02.96 bitrate=2120.8kbits/s speed=0.00959x elapsed=0:05:09.36    \nframe=  181 fps=0.6 q=31.6 size=     768KiB time=00:00:02.98 bitrate=2109.0kbits/s speed=0.00963x elapsed=0:05:09.89    \nframe=  182 fps=0.6 q=35.4 size=     768KiB time=00:00:03.00 bitrate=2097.3kbits/s speed=0.00966x elapsed=0:05:10.41    \nframe=  182 fps=0.6 q=35.4 size=     768KiB time=00:00:03.00 bitrate=2097.3kbits/s speed=0.00965x elapsed=0:05:10.93    \nframe=  182 fps=0.6 q=35.4 size=     768KiB time=00:00:03.00 bitrate=2097.3kbits/s speed=0.00963x elapsed=0:05:11.47    \nframe=  183 fps=0.6 q=36.9 size=     768KiB time=00:00:03.01 bitrate=2085.7kbits/s speed=0.00967x elapsed=0:05:12.00    \nframe=  183 fps=0.6 q=36.9 size=     768KiB time=00:00:03.01 bitrate=2085.7kbits/s speed=0.00965x elapsed=0:05:12.52    \nframe=  183 fps=0.6 q=36.9 size=     768KiB time=00:00:03.01 bitrate=2085.7kbits/s speed=0.00964x elapsed=0:05:13.04    \nframe=  183 fps=0.6 q=36.9 size=     768KiB time=00:00:03.01 bitrate=2085.7kbits/s speed=0.00962x elapsed=0:05:13.56    \nframe=  184 fps=0.6 q=36.7 size=     768KiB time=00:00:03.03 bitrate=2074.2kbits/s speed=0.00966x elapsed=0:05:14.09    \nframe=  185 fps=0.6 q=37.3 size=     768KiB time=00:00:03.05 bitrate=2062.9kbits/s speed=0.00969x elapsed=0:05:14.60    \nframe=  185 fps=0.6 q=37.3 size=     768KiB time=00:00:03.05 bitrate=2062.9kbits/s speed=0.00968x elapsed=0:05:15.12    \nframe=  186 fps=0.6 q=31.6 size=     768KiB time=00:00:03.06 bitrate=2051.7kbits/s speed=0.00971x elapsed=0:05:15.67    \nframe=  188 fps=0.6 q=37.0 size=     768KiB time=00:00:03.10 bitrate=2029.6kbits/s speed=0.0098x elapsed=0:05:16.18    \nframe=  188 fps=0.6 q=37.0 size=     768KiB time=00:00:03.10 bitrate=2029.6kbits/s speed=0.00979x elapsed=0:05:16.71    \nframe=  189 fps=0.6 q=36.9 size=     768KiB time=00:00:03.11 bitrate=2018.8kbits/s speed=0.00982x elapsed=0:05:17.24    \nframe=  189 fps=0.6 q=36.9 size=     768KiB time=00:00:03.11 bitrate=2018.8kbits/s speed=0.00981x elapsed=0:05:17.77    \nframe=  190 fps=0.6 q=37.1 size=     768KiB time=00:00:03.13 bitrate=2008.0kbits/s speed=0.00984x elapsed=0:05:18.29    \nframe=  190 fps=0.6 q=37.1 size=     768KiB time=00:00:03.13 bitrate=2008.0kbits/s speed=0.00983x elapsed=0:05:18.82    \nframe=  191 fps=0.6 q=31.7 size=     768KiB time=00:00:03.15 bitrate=1997.4kbits/s speed=0.00986x elapsed=0:05:19.34    \nframe=  192 fps=0.6 q=35.3 size=     768KiB time=00:00:03.16 bitrate=1986.9kbits/s speed=0.0099x elapsed=0:05:19.85    \nframe=  192 fps=0.6 q=35.3 size=     768KiB time=00:00:03.16 bitrate=1986.9kbits/s speed=0.00988x elapsed=0:05:20.38    \nframe=  193 fps=0.6 q=36.8 size=     768KiB time=00:00:03.18 bitrate=1976.5kbits/s speed=0.00992x elapsed=0:05:20.91    \nframe=  193 fps=0.6 q=36.8 size=     768KiB time=00:00:03.18 bitrate=1976.5kbits/s speed=0.0099x elapsed=0:05:21.44    \nframe=  193 fps=0.6 q=36.8 size=     768KiB time=00:00:03.18 bitrate=1976.5kbits/s speed=0.00989x elapsed=0:05:21.95    \nframe=  193 fps=0.6 q=36.8 size=     768KiB time=00:00:03.18 bitrate=1976.5kbits/s speed=0.00987x elapsed=0:05:22.48    \nframe=  194 fps=0.6 q=36.9 size=     768KiB time=00:00:03.20 bitrate=1966.2kbits/s speed=0.00991x elapsed=0:05:23.01    \nframe=  195 fps=0.6 q=36.9 size=     768KiB time=00:00:03.21 bitrate=1956.0kbits/s speed=0.00994x elapsed=0:05:23.52    \nframe=  195 fps=0.6 q=36.9 size=     768KiB time=00:00:03.21 bitrate=1956.0kbits/s speed=0.00993x elapsed=0:05:24.06    \nframe=  196 fps=0.6 q=31.1 size=     768KiB time=00:00:03.23 bitrate=1945.9kbits/s speed=0.00996x elapsed=0:05:24.59    \nframe=  197 fps=0.6 q=35.2 size=     768KiB time=00:00:03.25 bitrate=1935.9kbits/s speed=0.01x elapsed=0:05:25.11    \nframe=  198 fps=0.6 q=36.7 size=     768KiB time=00:00:03.26 bitrate=1926.1kbits/s speed=0.01x elapsed=0:05:25.64    \nframe=  198 fps=0.6 q=36.7 size=     768KiB time=00:00:03.26 bitrate=1926.1kbits/s speed=0.01x elapsed=0:05:26.15    \nframe=  198 fps=0.6 q=36.7 size=     768KiB time=00:00:03.26 bitrate=1926.1kbits/s speed=0.01x elapsed=0:05:26.67    \nframe=  198 fps=0.6 q=36.7 size=     768KiB time=00:00:03.26 bitrate=1926.1kbits/s speed=0.00998x elapsed=0:05:27.19    \nframe=  199 fps=0.6 q=36.6 size=     768KiB time=00:00:03.28 bitrate=1916.3kbits/s speed=0.01x elapsed=0:05:27.71    \nframe=  199 fps=0.6 q=36.6 size=     768KiB time=00:00:03.28 bitrate=1916.3kbits/s speed=0.01x elapsed=0:05:28.24    \nframe=  200 fps=0.6 q=37.1 size=     768KiB time=00:00:03.30 bitrate=1906.6kbits/s speed=0.01x elapsed=0:05:28.79    \nframe=  201 fps=0.6 q=31.2 size=     768KiB time=00:00:03.31 bitrate=1897.0kbits/s speed=0.0101x elapsed=0:05:29.31    \nframe=  201 fps=0.6 q=31.2 size=     768KiB time=00:00:03.31 bitrate=1897.0kbits/s speed=0.0101x elapsed=0:05:29.84    \nframe=  202 fps=0.6 q=35.1 size=     768KiB time=00:00:03.33 bitrate=1887.5kbits/s speed=0.0101x elapsed=0:05:30.37    \nframe=  202 fps=0.6 q=35.1 size=     768KiB time=00:00:03.33 bitrate=1887.5kbits/s speed=0.0101x elapsed=0:05:30.90    \nframe=  203 fps=0.6 q=36.4 size=     768KiB time=00:00:03.35 bitrate=1878.2kbits/s speed=0.0101x elapsed=0:05:31.42    \nframe=  203 fps=0.6 q=36.4 size=     768KiB time=00:00:03.35 bitrate=1878.2kbits/s speed=0.0101x elapsed=0:05:31.93    \nframe=  204 fps=0.6 q=36.2 size=     768KiB time=00:00:03.36 bitrate=1868.9kbits/s speed=0.0101x elapsed=0:05:32.44    \nframe=  205 fps=0.6 q=36.8 size=     768KiB time=00:00:03.38 bitrate=1859.6kbits/s speed=0.0102x elapsed=0:05:32.96    \nframe=  206 fps=0.6 q=31.1 size=     768KiB time=00:00:03.40 bitrate=1850.5kbits/s speed=0.0102x elapsed=0:05:33.48    \nframe=  207 fps=0.6 q=35.0 size=    1024KiB time=00:00:03.41 bitrate=2455.3kbits/s speed=0.0102x elapsed=0:05:33.99    \nframe=  208 fps=0.6 q=36.4 size=    1024KiB time=00:00:03.43 bitrate=2443.4kbits/s speed=0.0103x elapsed=0:05:34.51    \nframe=  209 fps=0.6 q=36.2 size=    1024KiB time=00:00:03.45 bitrate=2431.6kbits/s speed=0.0103x elapsed=0:05:35.04    \nframe=  209 fps=0.6 q=36.2 size=    1024KiB time=00:00:03.45 bitrate=2431.6kbits/s speed=0.0103x elapsed=0:05:35.59    \nframe=  209 fps=0.6 q=36.2 size=    1024KiB time=00:00:03.45 bitrate=2431.6kbits/s speed=0.0103x elapsed=0:05:36.11    \nframe=  209 fps=0.6 q=36.2 size=    1024KiB time=00:00:03.45 bitrate=2431.6kbits/s speed=0.0102x elapsed=0:05:36.66    \nframe=  210 fps=0.6 q=36.6 size=    1024KiB time=00:00:03.46 bitrate=2419.9kbits/s speed=0.0103x elapsed=0:05:37.21    \nframe=  210 fps=0.6 q=36.6 size=    1024KiB time=00:00:03.46 bitrate=2419.9kbits/s speed=0.0103x elapsed=0:05:37.74    \nframe=  210 fps=0.6 q=36.6 size=    1024KiB time=00:00:03.46 bitrate=2419.9kbits/s speed=0.0102x elapsed=0:05:38.26    \nframe=  210 fps=0.6 q=36.6 size=    1024KiB time=00:00:03.46 bitrate=2419.9kbits/s speed=0.0102x elapsed=0:05:38.78    \nframe=  211 fps=0.6 q=31.1 size=    1024KiB time=00:00:03.48 bitrate=2408.3kbits/s speed=0.0103x elapsed=0:05:39.31    \nframe=  211 fps=0.6 q=31.1 size=    1024KiB time=00:00:03.48 bitrate=2408.3kbits/s speed=0.0103x elapsed=0:05:39.83    \nframe=  211 fps=0.6 q=31.1 size=    1024KiB time=00:00:03.48 bitrate=2408.3kbits/s speed=0.0102x elapsed=0:05:40.35    \nframe=  212 fps=0.6 q=34.8 size=    1024KiB time=00:00:03.50 bitrate=2396.8kbits/s speed=0.0103x elapsed=0:05:40.88    \nframe=  213 fps=0.6 q=36.1 size=    1024KiB time=00:00:03.51 bitrate=2385.5kbits/s speed=0.0103x elapsed=0:05:41.41    \nframe=  213 fps=0.6 q=36.1 size=    1024KiB time=00:00:03.51 bitrate=2385.5kbits/s speed=0.0103x elapsed=0:05:41.94    \nframe=  213 fps=0.6 q=36.1 size=    1024KiB time=00:00:03.51 bitrate=2385.5kbits/s speed=0.0103x elapsed=0:05:42.47    \nframe=  213 fps=0.6 q=36.1 size=    1024KiB time=00:00:03.51 bitrate=2385.5kbits/s speed=0.0103x elapsed=0:05:42.99    \nframe=  213 fps=0.6 q=36.1 size=    1024KiB time=00:00:03.51 bitrate=2385.5kbits/s speed=0.0102x elapsed=0:05:43.52    \nframe=  214 fps=0.6 q=35.7 size=    1024KiB time=00:00:03.53 bitrate=2374.2kbits/s speed=0.0103x elapsed=0:05:44.04    \nframe=  214 fps=0.6 q=35.7 size=    1024KiB time=00:00:03.53 bitrate=2374.2kbits/s speed=0.0103x elapsed=0:05:44.56    \nframe=  215 fps=0.6 q=36.1 size=    1024KiB time=00:00:03.55 bitrate=2363.1kbits/s speed=0.0103x elapsed=0:05:45.08    \nframe=  216 fps=0.6 q=30.6 size=    1024KiB time=00:00:03.56 bitrate=2352.0kbits/s speed=0.0103x elapsed=0:05:45.62    \nframe=  216 fps=0.6 q=30.6 size=    1024KiB time=00:00:03.56 bitrate=2352.0kbits/s speed=0.0103x elapsed=0:05:46.14    \nframe=  218 fps=0.6 q=36.1 size=    1024KiB time=00:00:03.60 bitrate=2330.3kbits/s speed=0.0104x elapsed=0:05:46.68    \nframe=  218 fps=0.6 q=36.1 size=    1024KiB time=00:00:03.60 bitrate=2330.3kbits/s speed=0.0104x elapsed=0:05:47.20    \nframe=  218 fps=0.6 q=36.1 size=    1024KiB time=00:00:03.60 bitrate=2330.3kbits/s speed=0.0104x elapsed=0:05:47.71    \nframe=  218 fps=0.6 q=36.1 size=    1024KiB time=00:00:03.60 bitrate=2330.3kbits/s speed=0.0103x elapsed=0:05:48.22    \nframe=  219 fps=0.6 q=35.6 size=    1024KiB time=00:00:03.61 bitrate=2319.5kbits/s speed=0.0104x elapsed=0:05:48.73    \nframe=  219 fps=0.6 q=35.6 size=    1024KiB time=00:00:03.61 bitrate=2319.5kbits/s speed=0.0104x elapsed=0:05:49.25    \nframe=  220 fps=0.6 q=35.8 size=    1024KiB time=00:00:03.63 bitrate=2308.9kbits/s speed=0.0104x elapsed=0:05:49.79    \nframe=  220 fps=0.6 q=35.8 size=    1024KiB time=00:00:03.63 bitrate=2308.9kbits/s speed=0.0104x elapsed=0:05:50.30    \nframe=  221 fps=0.6 q=30.6 size=    1024KiB time=00:00:03.65 bitrate=2298.3kbits/s speed=0.0104x elapsed=0:05:50.82    \nframe=  223 fps=0.6 q=35.5 size=    1024KiB time=00:00:03.68 bitrate=2277.5kbits/s speed=0.0105x elapsed=0:05:51.34    \nframe=  223 fps=0.6 q=35.5 size=    1024KiB time=00:00:03.68 bitrate=2277.5kbits/s speed=0.0105x elapsed=0:05:51.86    \nframe=  223 fps=0.6 q=35.5 size=    1024KiB time=00:00:03.68 bitrate=2277.5kbits/s speed=0.0105x elapsed=0:05:52.38    \nframe=  224 fps=0.6 q=35.4 size=    1024KiB time=00:00:03.70 bitrate=2267.3kbits/s speed=0.0105x elapsed=0:05:52.94    \nframe=  224 fps=0.6 q=35.4 size=    1024KiB time=00:00:03.70 bitrate=2267.3kbits/s speed=0.0105x elapsed=0:05:53.51    \nframe=  224 fps=0.6 q=35.4 size=    1024KiB time=00:00:03.70 bitrate=2267.3kbits/s speed=0.0105x elapsed=0:05:54.04    \nframe=  225 fps=0.6 q=35.7 size=    1024KiB time=00:00:03.71 bitrate=2257.1kbits/s speed=0.0105x elapsed=0:05:54.56    \nframe=  225 fps=0.6 q=35.7 size=    1024KiB time=00:00:03.71 bitrate=2257.1kbits/s speed=0.0105x elapsed=0:05:55.08    \nframe=  227 fps=0.6 q=34.2 size=    1024KiB time=00:00:03.75 bitrate=2237.1kbits/s speed=0.0105x elapsed=0:05:55.64    \nframe=  228 fps=0.6 q=35.4 size=    1024KiB time=00:00:03.76 bitrate=2227.2kbits/s speed=0.0106x elapsed=0:05:56.16    \nframe=  228 fps=0.6 q=35.4 size=    1024KiB time=00:00:03.76 bitrate=2227.2kbits/s speed=0.0106x elapsed=0:05:56.69    \nframe=  228 fps=0.6 q=35.4 size=    1024KiB time=00:00:03.76 bitrate=2227.2kbits/s speed=0.0105x elapsed=0:05:57.20    \nframe=  229 fps=0.6 q=34.9 size=    1024KiB time=00:00:03.78 bitrate=2217.3kbits/s speed=0.0106x elapsed=0:05:57.74    \nframe=  230 fps=0.6 q=35.6 size=    1024KiB time=00:00:03.78 bitrate=2217.3kbits/s speed=0.0106x elapsed=0:05:58.26    \nframe=  230 fps=0.6 q=35.6 size=    1024KiB time=00:00:03.80 bitrate=2207.6kbits/s speed=0.0106x elapsed=0:05:58.79    \nframe=  230 fps=0.6 q=35.6 size=    1024KiB time=00:00:03.80 bitrate=2207.6kbits/s speed=0.0106x elapsed=0:05:59.33    \nframe=  230 fps=0.6 q=35.6 size=    1024KiB time=00:00:03.80 bitrate=2207.6kbits/s speed=0.0106x elapsed=0:05:59.89    \nframe=  230 fps=0.6 q=35.6 size=    1024KiB time=00:00:03.80 bitrate=2207.6kbits/s speed=0.0105x elapsed=0:06:00.43    \nframe=  231 fps=0.6 q=31.0 size=    1024KiB time=00:00:03.81 bitrate=2198.0kbits/s speed=0.0106x elapsed=0:06:00.98    \nframe=  232 fps=0.6 q=35.0 size=    1024KiB time=00:00:03.83 bitrate=2188.4kbits/s speed=0.0106x elapsed=0:06:01.58    \nframe=  232 fps=0.6 q=35.0 size=    1024KiB time=00:00:03.83 bitrate=2188.4kbits/s speed=0.0106x elapsed=0:06:02.18    \nframe=  232 fps=0.6 q=35.0 size=    1024KiB time=00:00:03.83 bitrate=2188.4kbits/s speed=0.0106x elapsed=0:06:02.75    \nframe=  233 fps=0.6 q=36.3 size=    1024KiB time=00:00:03.85 bitrate=2179.0kbits/s speed=0.0106x elapsed=0:06:03.33    \nframe=  233 fps=0.6 q=36.3 size=    1024KiB time=00:00:03.85 bitrate=2179.0kbits/s speed=0.0106x elapsed=0:06:03.87    \nframe=  233 fps=0.6 q=36.3 size=    1024KiB time=00:00:03.85 bitrate=2179.0kbits/s speed=0.0106x elapsed=0:06:04.44    \nframe=  233 fps=0.6 q=36.3 size=    1024KiB time=00:00:03.85 bitrate=2179.0kbits/s speed=0.0105x elapsed=0:06:04.97    \nframe=  234 fps=0.6 q=36.4 size=    1024KiB time=00:00:03.85 bitrate=2179.0kbits/s speed=0.0105x elapsed=0:06:05.49    \nframe=  234 fps=0.6 q=36.4 size=    1024KiB time=00:00:03.86 bitrate=2169.6kbits/s speed=0.0106x elapsed=0:06:06.03    \nframe=  234 fps=0.6 q=36.4 size=    1024KiB time=00:00:03.86 bitrate=2169.6kbits/s speed=0.0105x elapsed=0:06:06.55    \nframe=  234 fps=0.6 q=36.4 size=    1024KiB time=00:00:03.86 bitrate=2169.6kbits/s speed=0.0105x elapsed=0:06:07.09    \nframe=  234 fps=0.6 q=36.4 size=    1024KiB time=00:00:03.86 bitrate=2169.6kbits/s speed=0.0105x elapsed=0:06:07.60    \nframe=  235 fps=0.6 q=36.9 size=    1024KiB time=00:00:03.88 bitrate=2160.2kbits/s speed=0.0105x elapsed=0:06:08.12    \nframe=  237 fps=0.6 q=34.8 size=    1024KiB time=00:00:03.91 bitrate=2141.9kbits/s speed=0.0106x elapsed=0:06:08.65    \nframe=  237 fps=0.6 q=34.8 size=    1024KiB time=00:00:03.91 bitrate=2141.9kbits/s speed=0.0106x elapsed=0:06:09.18    \nframe=  238 fps=0.6 q=36.5 size=    1024KiB time=00:00:03.93 bitrate=2132.8kbits/s speed=0.0106x elapsed=0:06:09.70    \nframe=  238 fps=0.6 q=36.5 size=    1024KiB time=00:00:03.93 bitrate=2132.8kbits/s speed=0.0106x elapsed=0:06:10.22    \nframe=  239 fps=0.6 q=36.0 size=    1024KiB time=00:00:03.95 bitrate=2123.8kbits/s speed=0.0107x elapsed=0:06:10.74    \nframe=  239 fps=0.6 q=36.0 size=    1024KiB time=00:00:03.95 bitrate=2123.8kbits/s speed=0.0106x elapsed=0:06:11.25    \nframe=  240 fps=0.6 q=36.9 size=    1024KiB time=00:00:03.96 bitrate=2114.9kbits/s speed=0.0107x elapsed=0:06:11.80    \nframe=  241 fps=0.6 q=30.7 size=    1024KiB time=00:00:03.98 bitrate=2106.0kbits/s speed=0.0107x elapsed=0:06:12.32    \nframe=  242 fps=0.6 q=34.6 size=    1024KiB time=00:00:04.00 bitrate=2097.2kbits/s speed=0.0107x elapsed=0:06:12.84    \nframe=  243 fps=0.7 q=35.8 size=    1024KiB time=00:00:04.01 bitrate=2088.5kbits/s speed=0.0108x elapsed=0:06:13.37    \nframe=  243 fps=0.6 q=35.8 size=    1024KiB time=00:00:04.01 bitrate=2088.5kbits/s speed=0.0107x elapsed=0:06:13.89    \nframe=  244 fps=0.7 q=35.8 size=    1024KiB time=00:00:04.03 bitrate=2079.9kbits/s speed=0.0108x elapsed=0:06:14.41    \nframe=  244 fps=0.7 q=35.8 size=    1024KiB time=00:00:04.03 bitrate=2079.9kbits/s speed=0.0108x elapsed=0:06:14.93    \nframe=  246 fps=0.7 q=30.5 size=    1024KiB time=00:00:04.06 bitrate=2062.9kbits/s speed=0.0108x elapsed=0:06:15.44    \nframe=  247 fps=0.7 q=34.3 size=    1024KiB time=00:00:04.08 bitrate=2054.4kbits/s speed=0.0109x elapsed=0:06:15.97    \nframe=  247 fps=0.7 q=34.3 size=    1024KiB time=00:00:04.08 bitrate=2054.4kbits/s speed=0.0108x elapsed=0:06:16.53    \nframe=  247 fps=0.7 q=34.3 size=    1024KiB time=00:00:04.08 bitrate=2054.4kbits/s speed=0.0108x elapsed=0:06:17.07    \nframe=  248 fps=0.7 q=36.5 size=    1024KiB time=00:00:04.10 bitrate=2046.1kbits/s speed=0.0109x elapsed=0:06:17.61    \nframe=  248 fps=0.7 q=36.5 size=    1024KiB time=00:00:04.10 bitrate=2046.1kbits/s speed=0.0108x elapsed=0:06:18.12    \nframe=  248 fps=0.7 q=36.5 size=    1024KiB time=00:00:04.10 bitrate=2046.1kbits/s speed=0.0108x elapsed=0:06:18.66    \nframe=  249 fps=0.7 q=35.8 size=    1024KiB time=00:00:04.11 bitrate=2037.8kbits/s speed=0.0109x elapsed=0:06:19.21    \nframe=  249 fps=0.7 q=35.8 size=    1024KiB time=00:00:04.11 bitrate=2037.8kbits/s speed=0.0108x elapsed=0:06:19.74    \nframe=  250 fps=0.7 q=36.6 size=    1024KiB time=00:00:04.13 bitrate=2029.6kbits/s speed=0.0109x elapsed=0:06:20.27    \nframe=  250 fps=0.7 q=36.6 size=    1024KiB time=00:00:04.13 bitrate=2029.6kbits/s speed=0.0109x elapsed=0:06:20.80    \nframe=  250 fps=0.7 q=36.6 size=    1024KiB time=00:00:04.13 bitrate=2029.6kbits/s speed=0.0108x elapsed=0:06:21.36    \nframe=  251 fps=0.7 q=27.8 size=    1024KiB time=00:00:04.15 bitrate=2021.4kbits/s speed=0.0109x elapsed=0:06:21.90    \nframe=  251 fps=0.7 q=27.8 size=    1024KiB time=00:00:04.15 bitrate=2021.4kbits/s speed=0.0109x elapsed=0:06:22.45    \nframe=  251 fps=0.7 q=27.8 size=    1024KiB time=00:00:04.15 bitrate=2021.4kbits/s speed=0.0108x elapsed=0:06:22.98    \nframe=  252 fps=0.7 q=30.4 size=    1024KiB time=00:00:04.16 bitrate=2013.4kbits/s speed=0.0109x elapsed=0:06:23.49    \nframe=  253 fps=0.7 q=34.9 size=    1024KiB time=00:00:04.18 bitrate=2005.3kbits/s speed=0.0109x elapsed=0:06:24.01    \nframe=  254 fps=0.7 q=36.4 size=    1024KiB time=00:00:04.20 bitrate=1997.4kbits/s speed=0.0109x elapsed=0:06:24.52    \nframe=  255 fps=0.7 q=36.0 size=    1024KiB time=00:00:04.21 bitrate=1989.5kbits/s speed=0.011x elapsed=0:06:25.03    \nframe=  255 fps=0.7 q=36.0 size=    1024KiB time=00:00:04.21 bitrate=1989.5kbits/s speed=0.0109x elapsed=0:06:25.59    \nframe=  256 fps=0.7 q=35.7 size=    1024KiB time=00:00:04.23 bitrate=1981.6kbits/s speed=0.011x elapsed=0:06:26.12    \nframe=  256 fps=0.7 q=35.7 size=    1024KiB time=00:00:04.23 bitrate=1981.6kbits/s speed=0.0109x elapsed=0:06:26.64    \nframe=  257 fps=0.7 q=30.2 size=    1024KiB time=00:00:04.25 bitrate=1973.9kbits/s speed=0.011x elapsed=0:06:27.18    \nframe=  257 fps=0.7 q=30.2 size=    1024KiB time=00:00:04.25 bitrate=1973.9kbits/s speed=0.011x elapsed=0:06:27.71    \nframe=  258 fps=0.7 q=34.5 size=    1280KiB time=00:00:04.26 bitrate=2457.7kbits/s speed=0.011x elapsed=0:06:28.22    \nframe=  259 fps=0.7 q=35.1 size=    1280KiB time=00:00:04.28 bitrate=2448.1kbits/s speed=0.011x elapsed=0:06:28.76    \nframe=  259 fps=0.7 q=35.1 size=    1280KiB time=00:00:04.28 bitrate=2448.1kbits/s speed=0.011x elapsed=0:06:29.31    \nframe=  259 fps=0.7 q=35.1 size=    1280KiB time=00:00:04.28 bitrate=2448.1kbits/s speed=0.011x elapsed=0:06:29.83    \nframe=  260 fps=0.7 q=35.1 size=    1280KiB time=00:00:04.30 bitrate=2438.6kbits/s speed=0.011x elapsed=0:06:30.35    \nframe=  260 fps=0.7 q=35.1 size=    1280KiB time=00:00:04.30 bitrate=2438.6kbits/s speed=0.011x elapsed=0:06:30.86    \nframe=  261 fps=0.7 q=35.7 size=    1280KiB time=00:00:04.31 bitrate=2429.2kbits/s speed=0.011x elapsed=0:06:31.38    \nframe=  261 fps=0.7 q=35.7 size=    1280KiB time=00:00:04.31 bitrate=2429.2kbits/s speed=0.011x elapsed=0:06:31.92    \nframe=  263 fps=0.7 q=34.4 size=    1280KiB time=00:00:04.35 bitrate=2410.6kbits/s speed=0.0111x elapsed=0:06:32.43    \nframe=  263 fps=0.7 q=34.4 size=    1280KiB time=00:00:04.35 bitrate=2410.6kbits/s speed=0.0111x elapsed=0:06:32.93    \nframe=  264 fps=0.7 q=35.2 size=    1280KiB time=00:00:04.36 bitrate=2401.4kbits/s speed=0.0111x elapsed=0:06:33.46    \nframe=  264 fps=0.7 q=35.2 size=    1280KiB time=00:00:04.36 bitrate=2401.4kbits/s speed=0.0111x elapsed=0:06:34.00    \nframe=  264 fps=0.7 q=35.2 size=    1280KiB time=00:00:04.36 bitrate=2401.4kbits/s speed=0.0111x elapsed=0:06:34.57    \nframe=  264 fps=0.7 q=35.2 size=    1280KiB time=00:00:04.36 bitrate=2401.4kbits/s speed=0.0111x elapsed=0:06:35.14    \nframe=  264 fps=0.7 q=35.2 size=    1280KiB time=00:00:04.36 bitrate=2401.4kbits/s speed=0.011x elapsed=0:06:35.65    \nframe=  265 fps=0.7 q=35.0 size=    1280KiB time=00:00:04.38 bitrate=2392.3kbits/s speed=0.0111x elapsed=0:06:36.17    \nframe=  266 fps=0.7 q=35.6 size=    1280KiB time=00:00:04.40 bitrate=2383.2kbits/s speed=0.0111x elapsed=0:06:36.69    \nframe=  266 fps=0.7 q=35.6 size=    1280KiB time=00:00:04.40 bitrate=2383.2kbits/s speed=0.0111x elapsed=0:06:37.21    \nframe=  267 fps=0.7 q=30.1 size=    1280KiB time=00:00:04.41 bitrate=2374.2kbits/s speed=0.0111x elapsed=0:06:37.73    \nframe=  268 fps=0.7 q=33.9 size=    1280KiB time=00:00:04.43 bitrate=2365.3kbits/s speed=0.0111x elapsed=0:06:38.23    \nframe=  269 fps=0.7 q=34.8 size=    1280KiB time=00:00:04.45 bitrate=2356.4kbits/s speed=0.0112x elapsed=0:06:38.78    \nframe=  269 fps=0.7 q=34.8 size=    1280KiB time=00:00:04.45 bitrate=2356.4kbits/s speed=0.0111x elapsed=0:06:39.31    \nframe=  271 fps=0.7 q=35.4 size=    1280KiB time=00:00:04.48 bitrate=2338.9kbits/s speed=0.0112x elapsed=0:06:39.87    \nframe=  271 fps=0.7 q=35.4 size=    1280KiB time=00:00:04.48 bitrate=2338.9kbits/s speed=0.0112x elapsed=0:06:40.38    \nframe=  271 fps=0.7 q=35.4 size=    1280KiB time=00:00:04.48 bitrate=2338.9kbits/s speed=0.0112x elapsed=0:06:40.92    \nframe=  272 fps=0.7 q=30.4 size=    1280KiB time=00:00:04.50 bitrate=2330.2kbits/s speed=0.0112x elapsed=0:06:41.45    \nframe=  273 fps=0.7 q=33.8 size=    1280KiB time=00:00:04.51 bitrate=2321.6kbits/s speed=0.0112x elapsed=0:06:41.97    \nframe=  274 fps=0.7 q=34.8 size=    1280KiB time=00:00:04.53 bitrate=2313.1kbits/s speed=0.0113x elapsed=0:06:42.48    \nframe=  274 fps=0.7 q=34.8 size=    1280KiB time=00:00:04.53 bitrate=2313.1kbits/s speed=0.0112x elapsed=0:06:43.00    \nframe=  274 fps=0.7 q=34.8 size=    1280KiB time=00:00:04.53 bitrate=2313.1kbits/s speed=0.0112x elapsed=0:06:43.53    \nframe=  275 fps=0.7 q=34.9 size=    1280KiB time=00:00:04.55 bitrate=2304.6kbits/s speed=0.0113x elapsed=0:06:44.05    \nframe=  276 fps=0.7 q=35.0 size=    1280KiB time=00:00:04.56 bitrate=2296.2kbits/s speed=0.0113x elapsed=0:06:44.59    \nframe=  277 fps=0.7 q=30.5 size=    1280KiB time=00:00:04.58 bitrate=2287.9kbits/s speed=0.0113x elapsed=0:06:45.11    \nframe=  277 fps=0.7 q=30.5 size=    1280KiB time=00:00:04.58 bitrate=2287.9kbits/s speed=0.0113x elapsed=0:06:45.64    \nframe=  278 fps=0.7 q=33.3 size=    1280KiB time=00:00:04.60 bitrate=2279.6kbits/s speed=0.0113x elapsed=0:06:46.22    \nframe=  278 fps=0.7 q=33.3 size=    1280KiB time=00:00:04.60 bitrate=2279.6kbits/s speed=0.0113x elapsed=0:06:46.74    \nframe=  279 fps=0.7 q=35.5 size=    1280KiB time=00:00:04.61 bitrate=2271.4kbits/s speed=0.0113x elapsed=0:06:47.27    \nframe=  280 fps=0.7 q=35.3 size=    1280KiB time=00:00:04.63 bitrate=2263.2kbits/s speed=0.0114x elapsed=0:06:47.78    \nframe=  280 fps=0.7 q=35.3 size=    1280KiB time=00:00:04.63 bitrate=2263.2kbits/s speed=0.0113x elapsed=0:06:48.33    \nframe=  281 fps=0.7 q=30.2 size=    1280KiB time=00:00:04.65 bitrate=2255.1kbits/s speed=0.0114x elapsed=0:06:48.84    \nframe=  283 fps=0.7 q=34.2 size=    1280KiB time=00:00:04.68 bitrate=2239.0kbits/s speed=0.0114x elapsed=0:06:49.36    \nframe=  283 fps=0.7 q=34.2 size=    1280KiB time=00:00:04.68 bitrate=2239.0kbits/s speed=0.0114x elapsed=0:06:49.88    \nframe=  284 fps=0.7 q=34.2 size=    1280KiB time=00:00:04.70 bitrate=2231.1kbits/s speed=0.0115x elapsed=0:06:50.42    \nframe=  284 fps=0.7 q=34.2 size=    1280KiB time=00:00:04.70 bitrate=2231.1kbits/s speed=0.0114x elapsed=0:06:50.95    \nframe=  284 fps=0.7 q=34.2 size=    1280KiB time=00:00:04.70 bitrate=2231.1kbits/s speed=0.0114x elapsed=0:06:51.47    \nframe=  285 fps=0.7 q=34.5 size=    1280KiB time=00:00:04.70 bitrate=2231.1kbits/s speed=0.0114x elapsed=0:06:51.99    \nframe=  285 fps=0.7 q=34.5 size=    1280KiB time=00:00:04.71 bitrate=2223.2kbits/s speed=0.0114x elapsed=0:06:52.51    \nframe=  286 fps=0.7 q=30.1 size=    1280KiB time=00:00:04.73 bitrate=2215.4kbits/s speed=0.0115x elapsed=0:06:53.03    \nframe=  287 fps=0.7 q=32.1 size=    1280KiB time=00:00:04.75 bitrate=2207.6kbits/s speed=0.0115x elapsed=0:06:53.55    \nframe=  288 fps=0.7 q=34.1 size=    1280KiB time=00:00:04.76 bitrate=2199.9kbits/s speed=0.0115x elapsed=0:06:54.08    \nframe=  288 fps=0.7 q=34.1 size=    1280KiB time=00:00:04.76 bitrate=2199.9kbits/s speed=0.0115x elapsed=0:06:54.62    \nframe=  288 fps=0.7 q=34.1 size=    1280KiB time=00:00:04.76 bitrate=2199.9kbits/s speed=0.0115x elapsed=0:06:55.14    \nframe=  289 fps=0.7 q=33.8 size=    1280KiB time=00:00:04.78 bitrate=2192.2kbits/s speed=0.0115x elapsed=0:06:55.68    \nframe=  290 fps=0.7 q=33.9 size=    1280KiB time=00:00:04.80 bitrate=2184.6kbits/s speed=0.0115x elapsed=0:06:56.20    \nframe=  291 fps=0.7 q=30.1 size=    1280KiB time=00:00:04.81 bitrate=2177.0kbits/s speed=0.0116x elapsed=0:06:56.71    \nframe=  292 fps=0.7 q=31.3 size=    1280KiB time=00:00:04.83 bitrate=2169.5kbits/s speed=0.0116x elapsed=0:06:57.24    \nframe=  293 fps=0.7 q=32.9 size=    1280KiB time=00:00:04.85 bitrate=2162.1kbits/s speed=0.0116x elapsed=0:06:57.76    \nframe=  293 fps=0.7 q=32.9 size=    1280KiB time=00:00:04.85 bitrate=2162.1kbits/s speed=0.0116x elapsed=0:06:58.31    \nframe=  294 fps=0.7 q=31.9 size=    1280KiB time=00:00:04.86 bitrate=2154.7kbits/s speed=0.0116x elapsed=0:06:58.87    \nframe=  294 fps=0.7 q=31.9 size=    1280KiB time=00:00:04.86 bitrate=2154.7kbits/s speed=0.0116x elapsed=0:06:59.39    \nframe=  294 fps=0.7 q=31.9 size=    1280KiB time=00:00:04.86 bitrate=2154.7kbits/s speed=0.0116x elapsed=0:06:59.91    \nframe=  294 fps=0.7 q=31.9 size=    1280KiB time=00:00:04.86 bitrate=2154.7kbits/s speed=0.0116x elapsed=0:07:00.45    \nframe=  295 fps=0.7 q=33.0 size=    1280KiB time=00:00:04.88 bitrate=2147.3kbits/s speed=0.0116x elapsed=0:07:01.00    \nframe=  296 fps=0.7 q=30.6 size=    1280KiB time=00:00:04.90 bitrate=2140.0kbits/s speed=0.0116x elapsed=0:07:01.53    \nframe=  296 fps=0.7 q=30.6 size=    1280KiB time=00:00:04.90 bitrate=2140.0kbits/s speed=0.0116x elapsed=0:07:02.07    \nframe=  297 fps=0.7 q=30.3 size=    1280KiB time=00:00:04.91 bitrate=2132.8kbits/s speed=0.0116x elapsed=0:07:02.60    \nframe=  297 fps=0.7 q=30.3 size=    1280KiB time=00:00:04.91 bitrate=2132.8kbits/s speed=0.0116x elapsed=0:07:03.11    \n[mp4 @ 000001b947681300] Starting second pass: moving the moov atom to the beginning of the file\n[out#0/mp4 @ 000001b94767acc0] video:1502KiB audio:0KiB subtitle:0KiB other streams:0KiB global headers:2KiB muxing overhead: 0.443666%\nframe=  300 fps=0.7 q=33.9 Lsize=    1509KiB time=00:00:04.96 bitrate=2489.2kbits/s speed=0.0117x elapsed=0:07:03.44    \nx265 [info]: frame I:      2, Avg QP:33.66  kb/s: 14673.84\nx265 [info]: frame P:     60, Avg QP:31.65  kb/s: 7683.85 \nx265 [info]: frame B:    238, Avg QP:36.09  kb/s: 1040.11 \nx265 [info]: Weighted P-Frames: Y:0.0% UV:0.0%\n\nencoded 300 frames in 423.24s (0.71 fps), 2459.75 kb/s, Avg QP:35.18\n",
  "seconds": 423.73296904563904,
  "probe_out": {}
}